<svg xmlns="http://www.w3.org/2000/svg" xmlns:xlink="http://www.w3.org/1999/xlink" viewBox="0 0 203.64 268.16"><defs><style>.cls-1{fill:none;}.cls-2,.cls-4{fill:#fff;stroke:#231f20;stroke-linecap:round;stroke-linejoin:round;}.cls-2{stroke-width:5.89px;}.cls-3{clip-path:url(#clip-path);}.cls-4{stroke-width:1.04px;}.cls-5{fill:#231f20;}</style><clipPath id="clip-path" transform="translate(0 34.14)"><path class="cls-1" d="M166.79,163.57v58.32a317.07,317.07,0,0,0-70.27-8.4c-21.94,0-42.91,3.58-59.64,7.64V93.54l13.76-6.93V31L105.77,3V58.84l13.75-6.93V136.1Z"/></clipPath></defs><title>about1</title><g id="Layer_2" data-name="Layer 2"><g id="Layer_1-2" data-name="Layer 1"><polygon class="cls-2" points="105.77 153.5 50.64 153.5 50.64 65.13 105.77 37.09 105.77 153.5"/><path class="cls-2" d="M119.52,51.91V214.46c-7.43-.61-15.13-1-23-1-21.94,0-42.91,3.58-59.64,7.64V93.54l13.76-6.93,55.13-27.77Z" transform="translate(0 34.14)"/><path class="cls-2" d="M166.79,163.57v58.32a330.66,330.66,0,0,0-47.27-7.43V136.11Z" transform="translate(0 34.14)"/><g class="cls-3"><line class="cls-4" x1="44.53" y1="0.52" x2="44.53" y2="267.44"/><line class="cls-4" x1="49.75" y1="0.52" x2="49.75" y2="267.44"/><line class="cls-4" x1="54.98" y1="0.52" x2="54.98" y2="267.44"/><line class="cls-4" x1="60.21" y1="0.52" x2="60.21" y2="267.44"/><line class="cls-4" x1="65.43" y1="0.52" x2="65.43" y2="267.44"/><line class="cls-4" x1="70.66" y1="0.52" x2="70.66" y2="267.44"/><line class="cls-4" x1="75.89" y1="0.52" x2="75.89" y2="267.44"/><line class="cls-4" x1="81.11" y1="0.52" x2="81.11" y2="267.44"/><line class="cls-4" x1="86.34" y1="0.52" x2="86.34" y2="267.44"/><line class="cls-4" x1="91.56" y1="0.52" x2="91.56" y2="267.44"/><line class="cls-4" x1="96.79" y1="0.52" x2="96.79" y2="267.44"/><line class="cls-4" x1="102.02" y1="0.52" x2="102.02" y2="267.44"/><line class="cls-4" x1="107.24" y1="0.52" x2="107.24" y2="267.44"/><line class="cls-4" x1="112.47" y1="0.52" x2="112.47" y2="267.44"/><line class="cls-4" x1="126.23" y1="0.52" x2="126.23" y2="267.44"/><line class="cls-4" x1="131.46" y1="0.52" x2="131.46" y2="267.44"/><line class="cls-4" x1="136.68" y1="0.52" x2="136.68" y2="267.44"/><line class="cls-4" x1="141.91" y1="0.52" x2="141.91" y2="267.44"/><line class="cls-4" x1="147.13" y1="0.52" x2="147.13" y2="267.44"/><line class="cls-4" x1="152.36" y1="0.52" x2="152.36" y2="267.44"/><line class="cls-4" x1="157.59" y1="0.52" x2="157.59" y2="267.44"/><line class="cls-4" x1="162.81" y1="0.52" x2="162.81" y2="267.44"/></g><path class="cls-5" d="M203.44,234a432.81,432.81,0,0,0-50.5-11.45,353.62,353.62,0,0,0-51.27-4.91c-17.12-.51-34.22,1.19-51.19,4-8.48,1.43-16.91,3.24-25.28,5.3S8.48,231.33.25,234l-.25-.6a204.71,204.71,0,0,1,24.31-9.56A252,252,0,0,1,49.58,217a220.41,220.41,0,0,1,52.21-5.33c2.19.05,4.38,0,6.57.17l6.55.42,3.28.21,3.27.32,6.53.64,6.5.9c2.16.3,4.33.61,6.48,1l6.46,1.11,6.41,1.33a251.94,251.94,0,0,1,49.8,15.7Z" transform="translate(0 34.14)"/></g></g></svg>