<svg xmlns="http://www.w3.org/2000/svg" xmlns:xlink="http://www.w3.org/1999/xlink" viewBox="0 0 40 40"><defs><style>.cls-1{fill:url(#linear-gradient);}.cls-2{fill:#fff;}</style><linearGradient id="linear-gradient" y1="20" x2="40" y2="20" gradientUnits="userSpaceOnUse"><stop offset="0" stop-color="#3a37cc"/><stop offset="0.5" stop-color="#8e0335"/><stop offset="1" stop-color="#f4f42f"/></linearGradient></defs><title>ig</title><g id="Layer_2" data-name="Layer 2"><g id="Layer_1-2" data-name="Layer 1"><circle class="cls-1" cx="20" cy="20" r="20"/><path class="cls-2" d="M24.63,11.61H16.47a3.55,3.55,0,0,0-3.55,3.54v8.31A3.55,3.55,0,0,0,16.47,27h8.16a3.54,3.54,0,0,0,3.54-3.54V15.15A3.54,3.54,0,0,0,24.63,11.61Zm1.62,9.82A3.54,3.54,0,0,1,22.71,25H18.45a3.54,3.54,0,0,1-3.54-3.54V17.21a3.54,3.54,0,0,1,3.54-3.54h4.26a3.54,3.54,0,0,1,3.54,3.54Z"/><path class="cls-2" d="M23.16,14.72H18a2,2,0,0,0-2,2v5.14a2,2,0,0,0,2,2h5.16a2,2,0,0,0,2-2V16.75A2,2,0,0,0,23.16,14.72Zm-2.6,7.42a2.86,2.86,0,1,1,2.91-2.85A2.88,2.88,0,0,1,20.56,22.14Zm3-5.19a.67.67,0,0,1-.68-.66.68.68,0,0,1,1.36,0A.66.66,0,0,1,23.58,17Z"/><ellipse class="cls-2" cx="20.56" cy="19.29" rx="1.93" ry="1.89"/></g></g></svg>