<svg xmlns="http://www.w3.org/2000/svg" viewBox="0 0 40 40"><defs><style>.cls-1{fill:#191919;}.cls-2{fill:#fff;}</style></defs><title>mail</title><g id="Layer_2" data-name="Layer 2"><g id="Layer_1-2" data-name="Layer 1"><circle class="cls-1" cx="20" cy="20" r="20"/><path class="cls-2" d="M18.77,20.32C17.31,19.15,14,16,12.58,14.66a3.14,3.14,0,0,1,1-.14H26.43a3.94,3.94,0,0,1,1,.1,66.45,66.45,0,0,1-6.26,5.7A2.87,2.87,0,0,1,18.77,20.32Z"/><path class="cls-2" d="M28.77,16.87v6.52c0,1.32-.64,2.09-2.34,2.09H13.58c-1.37,0-2.35-.63-2.35-2V16.87a2.85,2.85,0,0,1,.28-1.35c1.06,1.12,5.28,5.5,7.38,6.31a3.73,3.73,0,0,0,2.17,0c2.09-.95,6.49-5.37,7.46-6.35A3.11,3.11,0,0,1,28.77,16.87Z"/></g></g></svg>