<svg xmlns="http://www.w3.org/2000/svg" viewBox="0 0 660 131.88"><defs><style>.cls-1{fill:#fff;}.cls-1,.cls-2{fill-rule:evenodd;}.cls-2{fill:#ff4000;}</style></defs><g id="Layer_2" data-name="Layer 2"><g id="Layer_2-2" data-name="Layer 2"><path class="cls-1" d="M632.59,72.38H592.07l8.64-21.28H633l.24-19c0-2.84-2.81-4.34-5.73-4.34H596.41c-3.27,0-6.74,2.08-6.79,5.07l-1,66.31H562.15l1.06-67.44c.24-14.87,16.06-25.22,32.46-25.22h32c16.48,0,32.62,10.63,32.38,26l-1,66.7H632.28Z"/><path class="cls-1" d="M505.33,48.42l8.13-6.27h39.78l-.46,21.28H505l-.46,35.69H478.07l1.06-67.44c.24-14.87,16.06-25.22,32.46-25.22h59.7c-11,3.77-14.21,13.84-16,21.28h-43c-3.27,0-6.75,2.08-6.79,5.07Z"/><path class="cls-1" d="M471.28,33.09l-.71,47.13c-.17,11.28-11.93,18.9-24.36,18.9H406.69c-12.49,0-24.67-8-24.49-19.64l.69-46.39h26.52l-.62,43.62c0,.93,1,1.26,1.9,1.26h30.6a2.52,2.52,0,0,0,2.72-2l.6-42.84Z"/><path class="cls-1" d="M384.06,99.12H340.25c-16.44,0-32.83-10.62-32.54-26l1.22-66.7h26.51l-1.13,67.19c-.07,2.67,3,4.32,5.73,4.32h34.73C374.72,85.76,377.42,93.54,384.06,99.12Z"/><polygon class="cls-2" points="274.43 6.46 300.94 6.46 300.66 20.94 274.05 27.23 274.43 6.46"/><polygon class="cls-1" points="272.95 99.12 273.93 33.09 300.43 33.09 299.46 99.12 272.95 99.12"/><path class="cls-2" d="M217.76,16.51c25.48,10,41.42,23.72,41.42,38.35,0,27.89-58,48.64-129.59,46.34a324.66,324.66,0,0,1-39.88-3.72,247.57,247.57,0,0,0,53-.48c60.6-6.93,103.86-33.27,96.62-58.85C236.92,29.63,229.21,22.28,217.76,16.51Z"/><path class="cls-1" d="M164.45,33.34a7,7,0,0,0-3.55.89c-1.05.59-1.57,1.71-1.58,3.36s.5,2.89,1.51,3.52a6.73,6.73,0,0,0,3.58.94h30a6.76,6.76,0,0,0,3.59-.94c1-.63,1.53-1.8,1.54-3.52s-.51-2.77-1.56-3.36a7,7,0,0,0-3.54-.89Zm.18,22.87q-5.74,0-5.76,4.45,0,4.65,5.73,4.65h29.49q5.74,0,5.76-4.65,0-4.45-5.72-4.45Zm0,26.13a39.81,39.81,0,0,1-11.79-1.48,19.51,19.51,0,0,1-7.47-4.06,13.91,13.91,0,0,1-3.87-6.09,25,25,0,0,1-1.1-7.67,16.37,16.37,0,0,1,2.73-9.7,13,13,0,0,1,6.74-5.05,11.72,11.72,0,0,1-3.08-1.74,11.06,11.06,0,0,1-2.59-2.87,16.26,16.26,0,0,1-1.82-4,17.09,17.09,0,0,1-.7-5.24,18,18,0,0,1,1.69-8,15.72,15.72,0,0,1,4.77-5.74,21.23,21.23,0,0,1,7.46-3.46,38.38,38.38,0,0,1,9.73-1.14h28.42a38.38,38.38,0,0,1,9.73,1.14,21,21,0,0,1,7.42,3.46,15.63,15.63,0,0,1,4.74,5.74,18,18,0,0,1,1.62,8,17.36,17.36,0,0,1-.73,5.24,16.31,16.31,0,0,1-1.86,4,11.31,11.31,0,0,1-2.61,2.87,11.83,11.83,0,0,1-3.1,1.74,12.93,12.93,0,0,1,6.71,5.05,16.21,16.21,0,0,1,2.65,9.7,25,25,0,0,1-1.15,7.67,14,14,0,0,1-3.92,6.09,19.65,19.65,0,0,1-7.5,4.06,39.93,39.93,0,0,1-11.8,1.48Z"/><path class="cls-1" d="M88.55,55.71a12.11,12.11,0,0,0,2.67,5.35,12.3,12.3,0,0,0,4.83,3.21,26.71,26.71,0,0,0,7,1.54c2.72.26,5.85.4,9.37.4a93.33,93.33,0,0,0,9.46-.4,25.43,25.43,0,0,0,5.79-1.14,5.8,5.8,0,0,0,2.88-1.88,4.25,4.25,0,0,0,.81-2.52q0-4.56-6.35-4.56Zm16.14-22.37a19,19,0,0,0-9.79,2.47,15.71,15.71,0,0,0-6.3,6.73h37.93q10.23,0,16.3,4.66t6,13.66a19,19,0,0,1-3.19,11.24A21.83,21.83,0,0,1,137.33,79a40.12,40.12,0,0,1-12,3.46,101.65,101.65,0,0,1-14,.94Q90.6,83.43,80,75.07T69.39,48.58a31.47,31.47,0,0,1,2.79-13.21,30.91,30.91,0,0,1,7.57-10.3A33.68,33.68,0,0,1,91.2,18.44a43.49,43.49,0,0,1,14.45-2.33h38.64l-12,17.23Z"/><polygon class="cls-2" points="43.17 11.35 66.21 11.35 65.01 82.34 45.54 82.34 46.61 24.96 31.28 24.96 43.17 11.35"/><path class="cls-1" d="M129.59.17A322.49,322.49,0,0,1,169.47,3.9a246.92,246.92,0,0,0-53,.48C55.87,11.3,12.61,37.65,19.85,63.22,22.26,71.74,30,79.1,41.43,84.87,16,74.83,0,61.14,0,46.52,0,18.62,58-2.13,129.59.17Z"/><path class="cls-1" d="M9.69,115.19h5.09v8.92a14.06,14.06,0,0,1-.5,4.27,4.88,4.88,0,0,1-2,2.49,6.81,6.81,0,0,1-3.86,1,8.9,8.9,0,0,1-3.85-.67,4.88,4.88,0,0,1-2.11-2,7.35,7.35,0,0,1-.88-3.2l4.84-.66A5.49,5.49,0,0,0,6.6,127a1.66,1.66,0,0,0,.61.85,1.39,1.39,0,0,0,.83.21,1.39,1.39,0,0,0,1.25-.63,4.25,4.25,0,0,0,.4-2.13v-10.1Zm18,13.71H21.91l-.83,2.71H15.9l6.18-16.42h5.56l6.15,16.42H28.48l-.83-2.71Zm-1.07-3.55-1.79-5.9-1.8,5.9Zm8.88,6.26V115.19h8.45a11.79,11.79,0,0,1,3.59.41,3.78,3.78,0,0,1,2,1.49,4.68,4.68,0,0,1-1.43,6.64,6.13,6.13,0,0,1-1.78.65,5.2,5.2,0,0,1,1.32.6,5.44,5.44,0,0,1,.81.86,5.84,5.84,0,0,1,.7,1l2.47,4.75H45.87l-2.71-5a3.81,3.81,0,0,0-.92-1.26A2.1,2.1,0,0,0,41,125h-.44v6.65Zm5.09-9.75h2.14a7.58,7.58,0,0,0,1.35-.22,1.35,1.35,0,0,0,.82-.52,1.55,1.55,0,0,0,.32-1,1.51,1.51,0,0,0-.51-1.23,3,3,0,0,0-1.89-.43H40.55v3.35Zm12.88-6.67h5.09v16.42H53.43V115.19Zm8.76,0h4.74l6.15,9.06v-9.06h4.8v16.42h-4.8l-6.12-9v9H62.19V115.19ZM89.5,125.67v-3.42h7.84v7a16,16,0,0,1-4,2.1,13.47,13.47,0,0,1-4.1.55,9.93,9.93,0,0,1-4.77-1,6.86,6.86,0,0,1-2.85-3,9.68,9.68,0,0,1-1-4.52,9.51,9.51,0,0,1,1.1-4.67,7.17,7.17,0,0,1,3.25-3,10.57,10.57,0,0,1,4.49-.79,12.49,12.49,0,0,1,4.06.49,5.14,5.14,0,0,1,2.24,1.53,6.69,6.69,0,0,1,1.34,2.62l-4.88.88a2.63,2.63,0,0,0-1-1.43,3.17,3.17,0,0,0-1.84-.5,3.31,3.31,0,0,0-2.65,1.16,5.53,5.53,0,0,0-1,3.67,5.73,5.73,0,0,0,1,3.8,3.5,3.5,0,0,0,2.79,1.14,5.48,5.48,0,0,0,1.62-.24,10,10,0,0,0,1.76-.83v-1.54Zm20.94,3.23H104.7l-.83,2.71H98.69l6.18-16.42h5.56l6.15,16.42h-5.31l-.83-2.71Zm-1.07-3.55-1.79-5.9-1.8,5.9Zm8.85-10.16H123l6.16,9.06v-9.06h4.79v16.42h-4.79l-6.13-9v9h-4.77V115.19Zm35,10.48v-3.42H161v7a16,16,0,0,1-4,2.1,13.47,13.47,0,0,1-4.1.55,9.93,9.93,0,0,1-4.77-1,6.8,6.8,0,0,1-2.85-3,9.68,9.68,0,0,1-1-4.52,9.51,9.51,0,0,1,1.1-4.67,7.17,7.17,0,0,1,3.25-3,10.57,10.57,0,0,1,4.49-.79,12.49,12.49,0,0,1,4.06.49,5.14,5.14,0,0,1,2.24,1.53,6.69,6.69,0,0,1,1.34,2.62l-4.88.88a2.73,2.73,0,0,0-1-1.43,3.17,3.17,0,0,0-1.84-.5,3.35,3.35,0,0,0-2.66,1.16,5.59,5.59,0,0,0-1,3.67,5.73,5.73,0,0,0,1,3.8,3.5,3.5,0,0,0,2.79,1.14,5.48,5.48,0,0,0,1.62-.24,10,10,0,0,0,1.76-.83v-1.54Zm10.91,5.94V115.19h8.45a11.9,11.9,0,0,1,3.6.41,3.72,3.72,0,0,1,2,1.49,4.65,4.65,0,0,1-1.43,6.64,6,6,0,0,1-1.78.65,4.88,4.88,0,0,1,1.32.6,4.64,4.64,0,0,1,.81.86,6.7,6.7,0,0,1,.71,1l2.46,4.75H174.5l-2.71-5a3.82,3.82,0,0,0-.91-1.26,2.12,2.12,0,0,0-1.25-.38h-.45v6.65Zm5.09-9.75h2.15a7.38,7.38,0,0,0,1.34-.22,1.32,1.32,0,0,0,.82-.52,1.68,1.68,0,0,0-.18-2.18,3.1,3.1,0,0,0-1.9-.43h-2.23v3.35Zm11.64,1.55a7.76,7.76,0,0,1,8.48-8.49,8.62,8.62,0,0,1,6.32,2.19,8.31,8.31,0,0,1,2.21,6.17,10.14,10.14,0,0,1-1,4.71,7,7,0,0,1-2.8,2.87,9.33,9.33,0,0,1-4.57,1,10.54,10.54,0,0,1-4.6-.88,7,7,0,0,1-3-2.8,9.3,9.3,0,0,1-1.13-4.79Zm5.07,0a5.52,5.52,0,0,0,.92,3.57,3.17,3.17,0,0,0,2.53,1.09,3.13,3.13,0,0,0,2.53-1.07,6,6,0,0,0,.9-3.81,5.08,5.08,0,0,0-.94-3.39,3.21,3.21,0,0,0-2.54-1.07,3.11,3.11,0,0,0-2.47,1.09,5.5,5.5,0,0,0-.93,3.59Zm13.8,2.76,4.82-.31a3.65,3.65,0,0,0,.63,1.79,2.7,2.7,0,0,0,2.24,1,2.45,2.45,0,0,0,1.67-.51,1.47,1.47,0,0,0,0-2.32,6.43,6.43,0,0,0-2.59-.95,11.14,11.14,0,0,1-4.76-2,4,4,0,0,1-1.43-3.17,4.35,4.35,0,0,1,.73-2.38,4.84,4.84,0,0,1,2.21-1.77,10.3,10.3,0,0,1,4-.64,8.24,8.24,0,0,1,4.79,1.17,5.05,5.05,0,0,1,2,3.72l-4.76.29a2.65,2.65,0,0,0-.8-1.63,2.56,2.56,0,0,0-1.69-.51,2,2,0,0,0-1.33.38,1.14,1.14,0,0,0-.45.91.93.93,0,0,0,.36.71,4.29,4.29,0,0,0,1.7.6,21.14,21.14,0,0,1,4.75,1.45,5,5,0,0,1,2.1,1.82,4.65,4.65,0,0,1,.65,2.43,5.22,5.22,0,0,1-.87,2.91,5.36,5.36,0,0,1-2.44,2,9.82,9.82,0,0,1-3.95.69q-4.19,0-5.8-1.61a6.35,6.35,0,0,1-1.82-4.09Zm17.64-11h5.09v16.42h-5.09V115.19Zm8.78,16.42V115.19h8.46a11.88,11.88,0,0,1,3.59.41,3.72,3.72,0,0,1,2,1.49,4.65,4.65,0,0,1-1.43,6.64,6,6,0,0,1-1.78.65,4.88,4.88,0,0,1,1.32.6,4.64,4.64,0,0,1,.81.86,6.7,6.7,0,0,1,.71,1l2.46,4.75h-5.73l-2.71-5a3.82,3.82,0,0,0-.91-1.26,2.12,2.12,0,0,0-1.25-.38h-.45v6.65Zm5.09-9.75h2.15a7.38,7.38,0,0,0,1.34-.22,1.32,1.32,0,0,0,.82-.52,1.68,1.68,0,0,0-.18-2.18,3.1,3.1,0,0,0-1.9-.43H231.2v3.35Zm30.42,7h-5.74l-.83,2.71h-5.18l6.18-16.42h5.56l6.15,16.42h-5.31l-.83-2.71Zm-1.07-3.55-1.79-5.9-1.8,5.9Zm8.83-10.16h5.07v6.2l5.31-6.2h6.75l-6,6.17,6.26,10.25h-6.24l-3.46-6.74-2.63,2.74v4h-5.07V115.19Zm18.21,11,4.81-.31a3.65,3.65,0,0,0,.64,1.79,2.69,2.69,0,0,0,2.24,1,2.47,2.47,0,0,0,1.67-.51,1.53,1.53,0,0,0,.59-1.18,1.51,1.51,0,0,0-.56-1.14,6.37,6.37,0,0,0-2.59-.95,11.14,11.14,0,0,1-4.75-2,4,4,0,0,1-1.43-3.17,4.27,4.27,0,0,1,.73-2.38,4.81,4.81,0,0,1,2.2-1.77,10.34,10.34,0,0,1,4-.64,8.26,8.26,0,0,1,4.8,1.17,5.05,5.05,0,0,1,2,3.72l-4.77.29a2.24,2.24,0,0,0-2.48-2.14,2.06,2.06,0,0,0-1.34.38,1.16,1.16,0,0,0-.44.91.93.93,0,0,0,.36.71,4.23,4.23,0,0,0,1.69.6,21.26,21.26,0,0,1,4.76,1.45,4.92,4.92,0,0,1,2.09,1.82,4.57,4.57,0,0,1,.66,2.43,5.22,5.22,0,0,1-.87,2.91,5.43,5.43,0,0,1-2.45,2,9.76,9.76,0,0,1-3.94.69c-2.79,0-4.73-.54-5.8-1.61a6.35,6.35,0,0,1-1.82-4.09Zm17.43-11h13.57v3.51h-8.48v2.61H318v3.35h-7.86v3.23h8.73v3.72H305V115.19Zm15.68,11,4.82-.31a3.56,3.56,0,0,0,.64,1.79,2.67,2.67,0,0,0,2.23,1,2.45,2.45,0,0,0,1.67-.51,1.47,1.47,0,0,0,0-2.32,6.43,6.43,0,0,0-2.59-.95,11.14,11.14,0,0,1-4.76-2,4,4,0,0,1-1.43-3.17,4.28,4.28,0,0,1,.74-2.38,4.75,4.75,0,0,1,2.2-1.77,10.3,10.3,0,0,1,4-.64,8.24,8.24,0,0,1,4.79,1.17,5.06,5.06,0,0,1,2,3.72l-4.77.29a2.65,2.65,0,0,0-.8-1.63,2.56,2.56,0,0,0-1.69-.51,2,2,0,0,0-1.33.38,1.14,1.14,0,0,0-.45.91.92.92,0,0,0,.37.71,4.16,4.16,0,0,0,1.69.6,21.44,21.44,0,0,1,4.76,1.45,5,5,0,0,1,2.09,1.82,4.65,4.65,0,0,1,.65,2.43,5.22,5.22,0,0,1-.87,2.91,5.36,5.36,0,0,1-2.44,2,9.82,9.82,0,0,1-3.95.69q-4.19,0-5.79-1.61a6.31,6.31,0,0,1-1.83-4.09Zm16.79-2.77a7.76,7.76,0,0,1,8.48-8.49,8.62,8.62,0,0,1,6.32,2.19,8.35,8.35,0,0,1,2.21,6.17,10.14,10.14,0,0,1-1,4.71,7,7,0,0,1-2.81,2.87,9.26,9.26,0,0,1-4.56,1,10.54,10.54,0,0,1-4.6-.88,7,7,0,0,1-2.95-2.8,9.3,9.3,0,0,1-1.13-4.79Zm5.07,0a5.52,5.52,0,0,0,.92,3.57,3.5,3.5,0,0,0,5.06,0,6,6,0,0,0,.9-3.81,5.08,5.08,0,0,0-.94-3.39,3.22,3.22,0,0,0-2.54-1.07,3.1,3.1,0,0,0-2.47,1.09,5.5,5.5,0,0,0-.93,3.59Zm14.74,8.19V115.19h8.45a11.79,11.79,0,0,1,3.59.41,3.78,3.78,0,0,1,2,1.49,4.65,4.65,0,0,1-1.43,6.64,6.13,6.13,0,0,1-1.78.65,5.2,5.2,0,0,1,1.32.6,5.44,5.44,0,0,1,.81.86,6.7,6.7,0,0,1,.71,1l2.46,4.75h-5.73l-2.71-5a3.67,3.67,0,0,0-.92-1.26,2.07,2.07,0,0,0-1.24-.38h-.45v6.65Zm5.09-9.75h2.14a7.58,7.58,0,0,0,1.35-.22,1.35,1.35,0,0,0,.82-.52,1.68,1.68,0,0,0-.18-2.18,3.1,3.1,0,0,0-1.9-.43h-2.23v3.35Zm12.88-6.67h5.09v16.42h-5.09V115.19Zm7.85,11,4.81-.31a3.65,3.65,0,0,0,.64,1.79,2.69,2.69,0,0,0,2.24,1,2.47,2.47,0,0,0,1.67-.51,1.53,1.53,0,0,0,.59-1.18,1.51,1.51,0,0,0-.56-1.14,6.37,6.37,0,0,0-2.59-.95,11.14,11.14,0,0,1-4.75-2,4,4,0,0,1-1.43-3.17,4.27,4.27,0,0,1,.73-2.38,4.81,4.81,0,0,1,2.2-1.77,10.34,10.34,0,0,1,4-.64,8.26,8.26,0,0,1,4.8,1.17,5.05,5.05,0,0,1,2,3.72l-4.77.29a2.6,2.6,0,0,0-.8-1.63,2.55,2.55,0,0,0-1.68-.51,2.06,2.06,0,0,0-1.34.38,1.16,1.16,0,0,0-.44.91.93.93,0,0,0,.36.71,4.23,4.23,0,0,0,1.69.6,21.26,21.26,0,0,1,4.76,1.45,4.92,4.92,0,0,1,2.09,1.82,4.57,4.57,0,0,1,.66,2.43,5.22,5.22,0,0,1-.87,2.91,5.43,5.43,0,0,1-2.45,2,9.76,9.76,0,0,1-3.94.69c-2.79,0-4.73-.54-5.8-1.61a6.35,6.35,0,0,1-1.82-4.09Zm33.33-.51v-3.42h7.84v7a16,16,0,0,1-4,2.1,13.47,13.47,0,0,1-4.1.55,9.93,9.93,0,0,1-4.77-1,6.75,6.75,0,0,1-2.85-3,9.68,9.68,0,0,1-1-4.52,9.41,9.41,0,0,1,1.11-4.67,7.17,7.17,0,0,1,3.25-3,10.57,10.57,0,0,1,4.49-.79,12.53,12.53,0,0,1,4.06.49,5.2,5.2,0,0,1,2.24,1.53,6.83,6.83,0,0,1,1.34,2.62l-4.89.88a2.67,2.67,0,0,0-1-1.43,3.17,3.17,0,0,0-1.84-.5,3.33,3.33,0,0,0-2.66,1.16,5.59,5.59,0,0,0-1,3.67,5.79,5.79,0,0,0,1,3.8,3.53,3.53,0,0,0,2.79,1.14,5.38,5.38,0,0,0,1.62-.24,10,10,0,0,0,1.77-.83v-1.54Zm20.94,3.23h-5.75l-.82,2.71h-5.18l6.18-16.42h5.55l6.15,16.42h-5.31l-.82-2.71Zm-1.07-3.55-1.79-5.9-1.8,5.9Zm8.87-10.16h7.54a9.06,9.06,0,0,1,3.6.6,6,6,0,0,1,2.27,1.74,7.21,7.21,0,0,1,1.3,2.63,12.15,12.15,0,0,1,.4,3.18,10.77,10.77,0,0,1-.6,4.08,6.57,6.57,0,0,1-1.66,2.43,5.42,5.42,0,0,1-2.28,1.31,11.77,11.77,0,0,1-3,.45h-7.54V115.19Zm5.07,3.71v9h1.25a5.37,5.37,0,0,0,2.27-.35,2.45,2.45,0,0,0,1.05-1.23,7.63,7.63,0,0,0,.38-2.85c0-1.74-.28-2.93-.85-3.57a3.62,3.62,0,0,0-2.83-1Zm20.95,6.77v-3.42h7.85v7a16.14,16.14,0,0,1-4,2.1,13.54,13.54,0,0,1-4.11.55,9.89,9.89,0,0,1-4.76-1,6.82,6.82,0,0,1-2.86-3,9.8,9.8,0,0,1-1-4.52,9.41,9.41,0,0,1,1.11-4.67,7.19,7.19,0,0,1,3.24-3,10.6,10.6,0,0,1,4.49-.79,12.6,12.6,0,0,1,4.07.49,5.2,5.2,0,0,1,2.24,1.53,6.83,6.83,0,0,1,1.34,2.62l-4.89.88a2.67,2.67,0,0,0-1-1.43,3.17,3.17,0,0,0-1.84-.5,3.33,3.33,0,0,0-2.66,1.16,5.59,5.59,0,0,0-1,3.67,5.73,5.73,0,0,0,1,3.8,3.53,3.53,0,0,0,2.79,1.14,5.38,5.38,0,0,0,1.62-.24,10.36,10.36,0,0,0,1.77-.83v-1.54Zm10.85-10.48h13.57v3.51h-8.48v2.61H495v3.35h-7.86v3.23h8.73v3.72H482.06V115.19Zm15.41,0H512.9v4.06h-5.18v12.36h-5.07V119.25h-5.18v-4.06Zm24.2,0h15.44v4.06h-5.19v12.36h-5.06V119.25h-5.19v-4.06Zm17.71,0H553v3.51h-8.48v2.61h7.86v3.35h-7.86v3.23h8.73v3.72H539.38V115.19ZM556,131.61V115.19h8.45a11.79,11.79,0,0,1,3.59.41,3.78,3.78,0,0,1,2,1.49,4.62,4.62,0,0,1,.76,2.67,4.46,4.46,0,0,1-2.19,4,6.13,6.13,0,0,1-1.78.65,5.2,5.2,0,0,1,1.32.6,5.44,5.44,0,0,1,.81.86,6.47,6.47,0,0,1,.7,1l2.47,4.75h-5.74l-2.7-5a3.81,3.81,0,0,0-.92-1.26,2.1,2.1,0,0,0-1.25-.38h-.44v6.65Zm5.09-9.75h2.14a7.38,7.38,0,0,0,1.34-.22,1.34,1.34,0,0,0,.83-.52,1.55,1.55,0,0,0,.32-1,1.51,1.51,0,0,0-.51-1.23,3,3,0,0,0-1.89-.43H561.1v3.35Zm12.69-6.67h9.51a5.14,5.14,0,0,1,3.64,1.18,3.79,3.79,0,0,1,1.28,2.91,3.67,3.67,0,0,1-.91,2.49,4.11,4.11,0,0,1-1.77,1.11,4.57,4.57,0,0,1,2.6,1.45,4.08,4.08,0,0,1,.83,2.61,4.42,4.42,0,0,1-2.21,3.91,5.51,5.51,0,0,1-1.93.53,22.75,22.75,0,0,1-2.28.23h-8.76V115.19Zm5.12,6.44h2.21a2.49,2.49,0,0,0,1.65-.41,1.48,1.48,0,0,0,.47-1.18,1.41,1.41,0,0,0-.47-1.12,2.49,2.49,0,0,0-1.62-.41h-2.24v3.12Zm0,6.45h2.58a2.84,2.84,0,0,0,1.85-.47,1.56,1.56,0,0,0,.54-1.25,1.44,1.44,0,0,0-.53-1.17,3,3,0,0,0-1.87-.44h-2.57v3.33Zm12.7-12.89h13.57v3.51H596.7v2.61h7.86v3.35H596.7v3.23h8.73v3.72H591.61V115.19Zm15.68,11,4.82-.31a3.65,3.65,0,0,0,.63,1.79,2.7,2.7,0,0,0,2.24,1,2.45,2.45,0,0,0,1.67-.51,1.47,1.47,0,0,0,0-2.32,6.43,6.43,0,0,0-2.59-.95,11.14,11.14,0,0,1-4.76-2,4,4,0,0,1-1.43-3.17,4.35,4.35,0,0,1,.73-2.38,4.84,4.84,0,0,1,2.21-1.77,10.28,10.28,0,0,1,4-.64,8.26,8.26,0,0,1,4.8,1.17,5.05,5.05,0,0,1,2,3.72l-4.76.29a2.65,2.65,0,0,0-.8-1.63,2.56,2.56,0,0,0-1.69-.51,2,2,0,0,0-1.33.38,1.14,1.14,0,0,0-.45.91.93.93,0,0,0,.36.71,4.29,4.29,0,0,0,1.7.6,21.14,21.14,0,0,1,4.75,1.45,5,5,0,0,1,2.1,1.82,4.65,4.65,0,0,1,.65,2.43,5.22,5.22,0,0,1-.87,2.91,5.36,5.36,0,0,1-2.44,2,9.82,9.82,0,0,1-4,.69q-4.18,0-5.8-1.61a6.35,6.35,0,0,1-1.82-4.09Zm27.53,2.72h-5.75l-.82,2.71h-5.18l6.18-16.42h5.55L641,131.61h-5.31l-.82-2.71Zm-1.07-3.55-1.8-5.9-1.79,5.9Zm8.87,6.26V115.19h8.46a11.88,11.88,0,0,1,3.59.41,3.78,3.78,0,0,1,2,1.49,4.62,4.62,0,0,1,.76,2.67,4.46,4.46,0,0,1-2.19,4,6.2,6.2,0,0,1-1.79.65,4.88,4.88,0,0,1,1.32.6,4.64,4.64,0,0,1,.81.86,6,6,0,0,1,.71,1l2.47,4.75H653l-2.71-5a3.82,3.82,0,0,0-.91-1.26,2.12,2.12,0,0,0-1.25-.38h-.45v6.65Zm5.09-9.75h2.15a7.38,7.38,0,0,0,1.34-.22,1.32,1.32,0,0,0,.82-.52,1.64,1.64,0,0,0-.18-2.18,3.08,3.08,0,0,0-1.89-.43h-2.24Z"/></g></g></svg>