<svg xmlns="http://www.w3.org/2000/svg" viewBox="0 0 1015 340"><defs><style>.cls-1{fill-rule:evenodd;}.cls-2{fill:#00d6ff;}.cls-3{fill:#00f076;}.cls-4{fill:#ff3a44;}.cls-5{fill:#ffd000;}.cls-6{fill:#fff;}</style></defs><g id="Layer_2" data-name="Layer 2"><g id="Eng"><path class="cls-1" d="M952.39,0H62C8.85,0,0,18.4,0,62.16V278.23C0,322,18.2,340,61.93,340H952.4c43.76,0,62.6-18.07,62.6-61.83v-216C1015,18.4,996.15,0,952.39,0Z"/><path class="cls-2" d="M87.05,67.55a6,6,0,0,0-4,5.67v198.3a6,6,0,0,0,4,5.66L192.33,172.33Z"/><path class="cls-3" d="M222,142.8,92,68a5.89,5.89,0,0,0-5-.46L192.33,172.33Z"/><path class="cls-4" d="M92,276.73l130-74.81-29.73-29.59L87,277.18A6,6,0,0,0,92,276.73Z"/><path class="cls-5" d="M222.06,201.92l42.29-24.33a6,6,0,0,0,0-10.44L222,142.8l-29.68,29.53Z"/><path class="cls-6" d="M498.68,195c-18.75,0-33.59,14.06-33.59,33.59a33.34,33.34,0,0,0,33.59,33.58c18.74,0,33.58-14.06,33.58-33.58C532.26,208.29,517.42,195,498.68,195Zm0,53.11c-10.16,0-18.75-8.59-18.75-20.3s8.59-20.31,18.75-20.31,18.74,7.81,18.74,20.31C517.42,239.53,508.83,248.12,498.68,248.12ZM426,195c-18.74,0-33.58,14.06-33.58,33.59A33.33,33.33,0,0,0,426,262.18c18.75,0,33.59-14.06,33.59-33.58C459.62,208.29,444.78,195,426,195Zm0,53.11c-10.15,0-18.74-8.59-18.74-20.3s8.59-20.31,18.74-20.31,18.75,7.81,18.75,20.31C444.78,239.53,436.19,248.12,426,248.12Zm-86.7-43v14.06h33.59c-.78,7.81-3.9,14.06-7.81,18-4.69,4.68-12.5,10.15-25.78,10.15-21.08,0-36.71-16.4-36.71-37.49s16.41-37.49,36.71-37.49c10.94,0,19.53,4.68,25.78,10.15l10.15-10.15c-8.59-7.81-19.52-14.06-35.14-14.06-28.12,0-52.34,23.43-52.34,51.55S312,261.4,340.12,261.4c15.62,0,26.55-4.68,35.93-14.84,9.37-9.37,12.49-22.65,12.49-32.8,0-3.13,0-6.25-.78-8.6ZM694,216.1C690.82,208.29,683,195,665.83,195s-31.25,13.28-31.25,33.59c0,18.74,14.06,33.58,32.81,33.58,14.84,0,24.21-9.37,27.34-14.84l-10.94-7.81c-3.9,5.47-8.59,9.37-16.4,9.37s-12.5-3.12-16.4-10.15L695.51,220,694,216.1ZM648.64,227c0-12.49,10.16-19.52,17.19-19.52,5.46,0,10.93,3.12,12.49,7L648.64,227Zm-36.71,32h14.84V161.42H611.93ZM588.5,202a25.7,25.7,0,0,0-18-7.81c-16.4,0-32,14.84-32,33.59a32.34,32.34,0,0,0,32,32.8,22.42,22.42,0,0,0,17.19-7.81h.78v4.69c0,12.49-7,19.52-18,19.52-8.59,0-14.84-6.25-16.4-11.71l-12.5,5.46c3.91,8.6,13.28,19.53,29.69,19.53,17.18,0,31.24-10.15,31.24-34.37V196.57H588.5V202Zm-17.18,46.08c-10.16,0-18.75-8.59-18.75-20.3s8.59-20.31,18.75-20.31,18,8.59,18,20.31S581.47,248.12,571.32,248.12Zm190.58-86.7H726.75v97.64h14.84V222.35H761.9c16.4,0,32-11.72,32-30.46S778.3,161.42,761.9,161.42Zm.78,46.87H741.59V174.7h21.09a17.15,17.15,0,0,1,17.18,16.4c-.78,8.6-7,17.19-17.18,17.19Zm89.83-14.06c-10.94,0-21.87,4.69-25.78,14.84L840,214.54c3.12-5.47,7.81-7,13.28-7,7.81,0,14.84,4.68,15.62,12.49v.79c-2.34-1.57-8.59-3.91-14.84-3.91-14.06,0-28.12,7.81-28.12,21.87,0,13.28,11.71,21.87,24.21,21.87,10.16,0,14.84-4.69,18.75-9.37h.78v7.81h14.06V221.57c-1.56-17.19-14.84-27.34-31.24-27.34Zm-1.57,53.89c-4.68,0-11.71-2.34-11.71-8.59,0-7.81,8.59-10.15,15.62-10.15,6.25,0,9.37,1.56,13.28,3.12C866.57,241.87,858.75,248.12,850.94,248.12Zm82-51.55-16.41,42.18h-.78l-17.18-42.18H883l25.77,59.36L893.9,288.74h14.84l39.84-92.17ZM801.74,259.06h14.84V161.42H801.74Z"/><path class="cls-6" d="M315,103.43h24.34a17.11,17.11,0,0,1,.35,2,20.75,20.75,0,0,1,.14,2.36,27.5,27.5,0,0,1-1.46,9,20.9,20.9,0,0,1-4.58,7.56,22.87,22.87,0,0,1-8,5.47,27.2,27.2,0,0,1-10.61,1.95A26.75,26.75,0,0,1,305,129.84a25.32,25.32,0,0,1-8.32-5.4,26,26,0,0,1-5.62-8.22,26.13,26.13,0,0,1,5.62-28.95,25.32,25.32,0,0,1,8.32-5.4A28.29,28.29,0,0,1,326,82a24.13,24.13,0,0,1,8.15,5.76l-6.45,6.31a17.65,17.65,0,0,0-19-4.06,16,16,0,0,0-9,8.81,18.88,18.88,0,0,0,0,14.07,16,16,0,0,0,3.67,5.38,16.6,16.6,0,0,0,5.37,3.43,19.14,19.14,0,0,0,13.21.07,15.76,15.76,0,0,0,4.68-3,11.09,11.09,0,0,0,2.39-3.15,18.12,18.12,0,0,0,1.56-4.27H315Z"/><path class="cls-6" d="M357,89.91v11.51h19.9v8.87H357V121.8h22.12v8.88H347.61V81h31.48v8.88Z"/><path class="cls-6" d="M398.22,130.68V89.91H384.36V81h37.09v8.88H407.58v40.77Z"/><path class="cls-6" d="M443.36,81h9.36v49.65h-9.36Z"/><path class="cls-6" d="M473.24,130.68V89.91H459.37V81h37.1v8.88H482.6v40.77Z"/><path class="cls-6" d="M540.49,131.79a26.09,26.09,0,0,1-10.29-2,25.17,25.17,0,0,1-8.22-5.51,25.49,25.49,0,0,1-5.44-8.25,27,27,0,0,1,0-20.31A25.11,25.11,0,0,1,530.2,81.93a27.37,27.37,0,0,1,20.59,0A25.2,25.2,0,0,1,564.45,95.7a27.16,27.16,0,0,1,0,20.31,25.14,25.14,0,0,1-13.66,13.76A26.17,26.17,0,0,1,540.49,131.79Zm0-8.88a16.9,16.9,0,0,0,6.49-1.25,16.2,16.2,0,0,0,5.26-3.46,15.71,15.71,0,0,0,3.54-5.38,19.59,19.59,0,0,0,0-13.93,15.71,15.71,0,0,0-3.54-5.38A16.2,16.2,0,0,0,547,90.05a17.45,17.45,0,0,0-13,0,16.25,16.25,0,0,0-5.27,3.46,15.85,15.85,0,0,0-3.54,5.38,19.59,19.59,0,0,0,0,13.93,15.85,15.85,0,0,0,3.54,5.38,16.25,16.25,0,0,0,5.27,3.46A16.81,16.81,0,0,0,540.49,122.91Z"/><path class="cls-6" d="M574,81h10.89l20,33.28h.56l-.56-9.56V81h9.29v49.65h-9.84L583.2,95.52h-.55l.55,9.57v25.59H574Z"/></g></g></svg>