<?xml version="1.0" encoding="UTF-8" standalone="no"?>
<svg
   viewBox="0 0 376 123.07"
   version="1.1"
   id="svg255"
   sodipodi:docname="bojonegoro.svg"
   inkscape:version="1.1 (c68e22c387, 2021-05-23)"
   xmlns:inkscape="http://www.inkscape.org/namespaces/inkscape"
   xmlns:sodipodi="http://sodipodi.sourceforge.net/DTD/sodipodi-0.dtd"
   xmlns="http://www.w3.org/2000/svg"
   xmlns:svg="http://www.w3.org/2000/svg">
  <sodipodi:namedview
     id="namedview257"
     pagecolor="#ffffff"
     bordercolor="#666666"
     borderopacity="1.0"
     inkscape:pageshadow="2"
     inkscape:pageopacity="0.0"
     inkscape:pagecheckerboard="0"
     showgrid="false"
     inkscape:zoom="2.9308511"
     inkscape:cx="187.8294"
     inkscape:cy="61.586206"
     inkscape:window-width="1440"
     inkscape:window-height="847"
     inkscape:window-x="-8"
     inkscape:window-y="-8"
     inkscape:window-maximized="1"
     inkscape:current-layer="svg255" />
  <defs
     id="defs237">
    <style
       id="style235">.cls-1{font-size:62.13px;font-family:Montserrat-SemiBold, Montserrat;font-weight:600;}.cls-2{letter-spacing:0em;}.cls-3{letter-spacing:-0.01em;}.cls-4{letter-spacing:0em;}</style>
  </defs>
  <title
     id="title239">bojonegoro</title>
  <path
     d="m 42.08,45.83 c 0,0 -16.35,-11.65 -9.51,-25.34 C 39.41,6.8 51.81,5.85 56.57,5.63 61.33,5.41 87.09,5.31 99.91,2 c 0,0 -5,20.74 -1.39,40.3 3.61,19.56 -16.78,29.75 -22.87,30.25 -7.83,0.66 -27.37,-1.39 -27.37,-20.2 0,-9.22 12.19,-17.32 16.79,-13.58 3.16,2.58 3.31,5.13 3.31,5.78 0,0 -4.06,-3.42 -6.84,-0.11 -2.78,3.31 -0.43,10.05 5.24,8.56 5.67,-1.49 8.44,-5.45 6.3,-12.19 -2.14,-6.74 -6.41,-12.3 -14.86,-10.59 -8.45,1.71 -16.35,7.27 -16.14,15.61 z"
     id="path241"
     style="fill:#ffffff" />
  <text
     class="cls-1"
     id="text251"
     style="fill:#ffffff"
     y="106.61">Bojonegoro<tspan
   class="cls-2"
   x="145.75"
   y="106.61"
   id="tspan243"
   style="fill:#ffffff" /></text>
</svg>
