<svg xmlns="http://www.w3.org/2000/svg" viewBox="0 0 376 123.07"><defs><style>.cls-1{font-size:62.13px;font-family:Montserrat-SemiBold, Montserrat;font-weight:600;}.cls-2{letter-spacing:0em;}.cls-3{letter-spacing:-0.01em;}.cls-4{letter-spacing:0em;}</style></defs><title>bojonegoro</title><g id="Layer_2" data-name="Layer 2"><g id="Layer_1-2" data-name="Layer 1"><path d="M38.08,43.83S21.73,32.18,28.57,18.49s19.24-14.64,24-14.86S83.09,3.31,95.91,0c0,0-5,20.74-1.39,40.3S77.74,70.05,71.65,70.55c-7.83.66-27.37-1.39-27.37-20.2,0-9.22,12.19-17.32,16.79-13.58,3.16,2.58,3.31,5.13,3.31,5.78,0,0-4.06-3.42-6.84-.11S57.11,52.49,62.78,51s8.44-5.45,6.3-12.19S62.67,26.51,54.22,28.22,37.87,35.49,38.08,43.83Z"/><text class="cls-1" transform="translate(0 106.61)">Bojo<tspan class="cls-2" x="145.75" y="0">n</tspan><tspan x="188.62" y="0">ego</tspan><tspan class="cls-3" x="310.45" y="0">r</tspan><tspan class="cls-4" x="335.93" y="0">o</tspan></text></g></g></svg>