<svg xmlns="http://www.w3.org/2000/svg" viewBox="0 0 283.16 115.96"><defs><style>.cls-1{font-size:53.26px;font-family:Montserrat-SemiBold, Montserrat;font-weight:600;}.cls-2{letter-spacing:-0.03em;}.cls-3{letter-spacing:0em;}</style></defs><title>boyolali</title><g id="Layer_2" data-name="Layer 2"><g id="Layer_1-2" data-name="Layer 1"><path d="M246.83,48.74c-28.55-2.8-37.51-20.72-39.33-21s-4.48,1.54-6,1.54-2.38-2.38-4.62-.42C181.36,42.42,170.2,47.24,160,50.56A30,30,0,0,1,152,51.64c.89-6.64,2.91-17.75,6.61-19,5.07-1.74,5.65,2.49,15.47.17,0,0-1.91-7.91-9.4-10.48,0,0,9.91-12,2.92-22.31,0,0,.16,18.81-7,19.8-4.63.65-10.49-2.66-18.65-2.66s-19.14,4-19.14,4S114.12,15.81,114,.66c0,0-5.5,10.83,3.49,22.14,0,0-7.49,5.5-9.9,10.57,0,0,11.73,2,15.47.25,2.92-1.35,5.47,10.51,6.47,18a27.84,27.84,0,0,1-7.26-1c-10.15-3.32-21.32-8.14-36.81-21.7-2.24-2-3.08.42-4.62.42s-4.2-1.82-6-1.54S64,45.94,35.44,48.74,3.1,50,3.1,50l1,10.92,137.06-.41,137.05.41,1-10.92S275.39,51.54,246.83,48.74Zm-113-18.06c3.74-1.54,4.91,1.55,4.91,1.55C135.3,32.89,133.87,30.68,133.87,30.68Zm10.22,1.49s1.17-3.1,4.9-1.55C149,30.62,147.56,32.82,144.09,32.17Z"/><text class="cls-1" transform="translate(0 101.84)">B<tspan class="cls-2" x="40.53" y="0">OY</tspan><tspan x="117.38" y="0">O</tspan><tspan class="cls-3" x="162.22" y="0">L</tspan><tspan x="194.38" y="0">ALI</tspan></text></g></g></svg>