<svg xmlns="http://www.w3.org/2000/svg" viewBox="0 0 370.59 114.91"><defs><style>.cls-1{font-size:57.29px;font-family:Montserrat-SemiBold, Montserrat;font-weight:600;}.cls-2{letter-spacing:-0.01em;}</style></defs><title>grobogan</title><g id="Layer_2" data-name="Layer 2"><g id="Layer_1-2" data-name="Layer 1"><text class="cls-1" transform="translate(75.89 99.73)">G<tspan class="cls-2" x="44.23" y="0">r</tspan><tspan x="67.72" y="0">obogan</tspan></text><path d="M75.23,55.2C69.29,58,59.31,66.91,59.31,66.91s.75.13-2.24.27-5.93-5.85-5.93-5.85a105.32,105.32,0,0,0,20.69-7c11.17-5.11,16.23-19.47,17-21.15s4.81-14.3-1-21.78S77.62,1.59,69.18.23,53.48,3.86,49.71,8.17,45.63,18.7,45,19.47s-1.73.27-2.63,0-.41-1.27-.95-1.91-1.23.78-1.37,1-1-.59-1-.59c-1.22-3.18-2.63-3.63-4.22-3.45-1.93.22-2.27,3.41-2.27,3.41a2.65,2.65,0,0,0-2.18-.55c-1,.36-2,2.58-2.54,2s.19-2.81.19-2.81c-1,.17-4.41,4.39-4.41,4.39-3,.51-5,2.45-7,4.68a14.87,14.87,0,0,0-3.22,6.21,11.73,11.73,0,0,1-.82,3.27c-.22.23-1.31.09-1.63.14s-.1.82-.23,3.54S.16,58.67.16,58.67s-.41,1.74.07,2a2.5,2.5,0,0,0,1.91,0c.68-.27,3.43-3.84,3.91-4.59s2.45-.69,2.48-.58a2.23,2.23,0,0,1-.16,1.42c-.31.41-1.57,1.57-1.4,1.84a2.31,2.31,0,0,0,2,0c.41-.31,1.5-1,1.81-.88s.44,1.73.81,1.93a12.71,12.71,0,0,0,2.22.44c1.56,3.89,3.87,3.07,6,3.14s10.13-3.82,12.65-4,10.49,5.17,12.25,7.42-3.73,27.09-3.73,27.09c16.21-11.15,36.37,2.42,36.37,2.42-1.8-5.63-4.86-17.57.34-27.17C83.14,59,97,50.1,97,50.1A51.22,51.22,0,0,0,75.23,55.2Zm.28-50.78C90.76,10,87.35,26.61,87.15,28S83.68,42.63,74.49,48c-4.9,2.86-4.56,2.45-7.76,2.66,0,0,6.12-7.42,6.73-12.18S73,34.24,73,34.24a6.25,6.25,0,0,0-3,.86c.6-.43,11.28-8.31,9-18.69-2.31-10.69-14-9.6-14-9.6s-9.46,1.7-12.32,3.34C52.64,10.15,60.26-1.16,75.51,4.42ZM52.17,22.12a45.86,45.86,0,0,0,.54-5.51S59.49,5.85,71,9.87c10.28,3.61,5.17,17,1.5,19.8a15.07,15.07,0,0,1-11.71,6.06c-8.1.41-6.06,0-6.06,0s-1.15-2-.61-2.92,1-1,1-1,.14-1.7-.21-1.77-1.09.55-1.35.55-1.64-2.38-3.41-2.93A19.28,19.28,0,0,0,52.17,22.12ZM70.45,79.64s1-8.65-6.19-11.78c0,0,15.18-15.14,24.71-14.73C89,53.13,71.9,62.67,70.45,79.64Z"/></g></g></svg>