<?xml version="1.0" encoding="UTF-8" standalone="no"?>
<svg
   viewBox="0 0 461.22 161.67"
   version="1.1"
   id="svg50"
   sodipodi:docname="karanganyar.svg"
   inkscape:version="1.1 (c68e22c387, 2021-05-23)"
   xmlns:inkscape="http://www.inkscape.org/namespaces/inkscape"
   xmlns:sodipodi="http://sodipodi.sourceforge.net/DTD/sodipodi-0.dtd"
   xmlns="http://www.w3.org/2000/svg"
   xmlns:svg="http://www.w3.org/2000/svg">
  <sodipodi:namedview
     id="namedview52"
     pagecolor="#ffffff"
     bordercolor="#666666"
     borderopacity="1.0"
     inkscape:pageshadow="2"
     inkscape:pageopacity="0.0"
     inkscape:pagecheckerboard="0"
     showgrid="false"
     inkscape:zoom="2.3893153"
     inkscape:cx="230.40074"
     inkscape:cy="80.985545"
     inkscape:window-width="1440"
     inkscape:window-height="847"
     inkscape:window-x="-8"
     inkscape:window-y="-8"
     inkscape:window-maximized="1"
     inkscape:current-layer="svg50" />
  <defs
     id="defs4">
    <style
       id="style2">.cls-1{fill:#fff;}</style>
  </defs>
  <title
     id="title6">karanganyar</title>
  <g
     id="Layer_2"
     data-name="Layer 2"
     style="fill:#ffffff">
    <g
       id="Layer_1-2"
       data-name="Layer 1"
       style="fill:#ffffff">
      <path
         d="M79.14,125.11l2.15-2.28a75.37,75.37,0,0,1-8.16-1.4L66.83,128V119.6a55,55,0,0,1-8.08-3.66v33.23h8.08V138l6.9-7.08,15.36,18.21h9.45Z"
         id="path8"
         style="fill:#ffffff" />
      <path
         d="M121.44,116.41c-4.21,2.28-10.3,4.54-18.88,5.91l1.64,3a16.48,16.48,0,0,1,10.08-3.29c5.53,0,8.26,2.67,8.26,7.2v.51H114c-10.07,0-13.8,4.35-13.8,9.88,0,5.78,4.79,10,12.37,10,5,0,8.58-1.62,10.45-4.48v4h7.34V129.71C130.32,122.46,127.14,118.1,121.44,116.41Zm1.1,22.38c-1.31,3.42-4.6,5.16-8.39,5.16-4,0-6.34-1.8-6.34-4.6,0-2.43,1.43-4.42,6.71-4.42h8Z"
         id="path10"
         style="fill:#ffffff" />
      <path
         d="M147.66,120.82V116h-7.4v33.2H148v-16.1c0-6.78,3.72-10.26,9.63-10.26a11.17,11.17,0,0,1,1.8.18V115.6C153.94,115.6,149.9,117.34,147.66,120.82Z"
         id="path12"
         style="fill:#ffffff" />
      <path
         d="M178.57,115.6c-5.35,0-10.51,1.37-14.06,4.1l3.05,5.66a16.42,16.42,0,0,1,10.07-3.29c5.53,0,8.27,2.67,8.27,7.2v.51h-8.58c-10.07,0-13.8,4.35-13.8,9.88,0,5.78,4.78,10,12.37,10,5,0,8.58-1.62,10.45-4.48v4h7.33V129.71C193.67,120.14,188.14,115.6,178.57,115.6Zm7.33,23.19c-1.3,3.42-4.6,5.16-8.39,5.16-4,0-6.34-1.8-6.34-4.6,0-2.43,1.42-4.42,6.71-4.42h8Z"
         id="path14"
         style="fill:#ffffff" />
      <path
         d="M222.46,115.6c-4.85,0-8.89,1.62-11.44,4.66V116h-7.39v33.2h7.76V132.38c0-6.65,3.73-10,9.27-10,5,0,7.89,2.87,7.89,8.77v18h7.78v-19C236.33,120.14,230.42,115.6,222.46,115.6Z"
         id="path16"
         style="fill:#ffffff" />
      <path
         d="M272.08,116v4.42c-2.74-3.3-6.84-4.79-11.51-4.79-9.51,0-16.78,6.34-16.78,16s7.27,16.1,16.78,16.1c4.48,0,8.4-1.43,11.13-4.41V145c0,6.71-3.23,10.07-10.57,10.07a20.08,20.08,0,0,1-12.24-4L245.4,157c3.79,3.1,9.95,4.72,16.17,4.72,11.63,0,17.91-5.47,17.91-17.54V116Zm-10.32,25.12c-5.91,0-10.14-3.85-10.14-9.51s4.23-9.39,10.14-9.39,10.07,3.79,10.07,9.39S267.6,141.09,261.76,141.09Z"
         id="path18"
         style="fill:#ffffff" />
      <path
         d="M302.36,115.6c-5.35,0-10.51,1.37-14.06,4.1l3.05,5.66a16.45,16.45,0,0,1,10.07-3.29c5.54,0,8.27,2.67,8.27,7.2v.51h-8.58c-10.07,0-13.8,4.35-13.8,9.88,0,5.78,4.79,10,12.37,10,5,0,8.58-1.62,10.45-4.48v4h7.34V129.71C317.47,120.14,311.93,115.6,302.36,115.6Zm7.33,23.19c-1.3,3.42-4.59,5.16-8.39,5.16-4,0-6.34-1.8-6.34-4.6,0-2.43,1.43-4.42,6.71-4.42h8Z"
         id="path20"
         style="fill:#ffffff" />
      <path
         d="M346.25,115.6c-4.85,0-8.89,1.62-11.44,4.66V116h-7.39v33.2h7.76V132.38c0-6.65,3.73-10,9.27-10,5,0,7.9,2.87,7.9,8.77v18h7.77v-19C360.12,120.14,354.21,115.6,346.25,115.6Z"
         id="path22"
         style="fill:#ffffff" />
      <path
         d="M393,116l-10.5,24.56L372.06,116H364l14.49,33.33-.56,1.3c-1.49,3.3-3.11,4.61-5.84,4.61a8.48,8.48,0,0,1-5.73-2.31l-3.1,5.72a13.71,13.71,0,0,0,8.89,3c5.53,0,9.76-2.3,12.81-9.82L400.47,116Z"
         id="path24"
         style="fill:#ffffff" />
      <path
         d="M417,115.6c-5.35,0-10.51,1.37-14.05,4.1l3,5.66A16.48,16.48,0,0,1,416,122.07c5.53,0,8.26,2.67,8.26,7.2v.51H415.7c-10.07,0-13.8,4.35-13.8,9.88,0,5.78,4.79,10,12.37,10,5,0,8.59-1.62,10.45-4.48v4h7.34V129.71C432.06,120.14,426.52,115.6,417,115.6Zm7.33,23.19c-1.3,3.42-4.59,5.16-8.39,5.16-4,0-6.34-1.8-6.34-4.6,0-2.43,1.43-4.42,6.71-4.42h8Z"
         id="path26"
         style="fill:#ffffff" />
      <path
         d="M449.4,120.82V116H442v33.2h7.77v-16.1c0-6.78,3.73-10.26,9.63-10.26a11.4,11.4,0,0,1,1.81.18V115.6C455.68,115.6,451.65,117.34,449.4,120.82Z"
         id="path28"
         style="fill:#ffffff" />
      <path
         d="M91.46,119.84c-3.62-.17-7-.41-10.17-.78a75.37,75.37,0,0,1-8.16-1.4,56.8,56.8,0,0,1-6.3-1.83,55,55,0,0,1-8.08-3.66C52.93,109,47,104.39,40.19,97.88,22.14,80.55,0,.74,0,.74,8.94,4,43.08,29.4,53,38.52S79.46,66,81.79,84.39A129.89,129.89,0,0,0,86,104.27c.78,2.7,1.57,5.16,2.3,7.28C90.08,116.65,91.46,119.84,91.46,119.84Z"
         id="path30"
         style="fill:#ffffff" />
      <path
         d="M76.48,60.38s6.89-9.11,7.91-18.79S93,19.26,94.81,17.21c0,0-5.41,24.82-5.49,30.33-.09,6.52-8.19,18.8-9.21,18.89Z"
         id="path32"
         style="fill:#ffffff" />
      <path
         d="M81.6,68.66s6.14-7.63,8-12.74a37.31,37.31,0,0,0,2.51-11.17C92.67,40.1,94,27.35,95.84,21S103,5.3,110.91,0c0,0-9.4,15.17-9.68,32.66-.22,13.59-.81,18.63-1.3,20.65a31.85,31.85,0,0,1-8.1,15.26c-5,5.21-7.44,8.19-7.44,8.19Z"
         id="path34"
         style="fill:#ffffff" />
      <path
         d="M121.42,61S145,56,159,58.1s29.31,6.14,29.31,6.14-16.61-11-38-11.58S121.42,61,121.42,61Z"
         id="path36"
         style="fill:#ffffff" />
      <path
         d="M129.1,95s19-21.49,34.05-28,24-1.4,24-1.4-16,1-24.56,5.58S136.63,86.3,129.1,95Z"
         id="path38"
         style="fill:#ffffff" />
      <path
         d="M96.18,123.13l.46,0Z"
         id="path40"
         style="fill:#ffffff" />
      <path
         d="M146.26,85S131.33,103.46,128.68,107a22.79,22.79,0,0,1-7.24,5.69c-4.21,2.28-10.3,4.54-18.88,5.91-1.69.27-3.47.51-5.35.7a35.26,35.26,0,0,0,5.13-1.12,44.77,44.77,0,0,0,13-6.3h0a49.08,49.08,0,0,0,7-6C134.82,93,144.59,85.32,146.26,85Z"
         id="path42"
         style="fill:#ffffff" />
      <circle
         cx="150.62"
         cy="62.09"
         r="2.23"
         id="circle44"
         style="fill:#ffffff" />
      <circle
         class="cls-1"
         cx="151.38"
         cy="63.19"
         r="0.6"
         id="circle46"
         style="fill:#ffffff" />
    </g>
  </g>
</svg>
