<?xml version="1.0" encoding="UTF-8" standalone="no"?>
<!-- Generator: Adobe Illustrator 24.0.0, SVG Export Plug-In . SVG Version: 6.00 Build 0)  -->

<svg
   version="1.1"
   id="Layer_1"
   x="0px"
   y="0px"
   viewBox="0 0 622.1 238.8"
   style="enable-background:new 0 0 622.1 238.8;"
   xml:space="preserve"
   sodipodi:docname="kudus.svg"
   inkscape:version="1.1 (c68e22c387, 2021-05-23)"
   xmlns:inkscape="http://www.inkscape.org/namespaces/inkscape"
   xmlns:sodipodi="http://sodipodi.sourceforge.net/DTD/sodipodi-0.dtd"
   xmlns="http://www.w3.org/2000/svg"
   xmlns:svg="http://www.w3.org/2000/svg"><defs
   id="defs27" /><sodipodi:namedview
   id="namedview25"
   pagecolor="#ffffff"
   bordercolor="#666666"
   borderopacity="1.0"
   inkscape:pageshadow="2"
   inkscape:pageopacity="0.0"
   inkscape:pagecheckerboard="0"
   showgrid="false"
   inkscape:zoom="1.7714195"
   inkscape:cx="311.33225"
   inkscape:cy="119.39578"
   inkscape:window-width="1440"
   inkscape:window-height="847"
   inkscape:window-x="-8"
   inkscape:window-y="-8"
   inkscape:window-maximized="1"
   inkscape:current-layer="Layer_1" />
<style
   type="text/css"
   id="style2">
	.st0{enable-background:new    ;}
</style>
<title
   id="title4">kudus</title>
<g
   id="Layer_2_1_"
   style="fill:#ffffff">
	<g
   id="Layer_1-2"
   style="fill:#ffffff">
		<path
   d="M225.2,191.3c-2.1,0.4-3.6,0.8-6.6-0.6c-1.9-0.9-3.5-2.3-4.7-4c0.6-0.3,0.4-1.7,0.4-2.1s-1-0.9-1.6-2s-0.3-4.2-0.6-9.9    s1.7-6.1,3.7-6.9s3.5-1.6,3.3-3.3s-2-1.6-4.9-3.2c-1.7-0.9-2.9-2.4-3.3-4.2l0.1-6.5l1.5-2.1c0.6-0.8,0.4-1.8-0.4-2.4    c0,0,0,0-0.1-0.1l-8.6-6c0.4-2-1.6-4-1.6-4l-8-7.6c0-1.1-0.7-2-1.8-2.3c-0.8-0.4-1.5-1-2.1-1.7l-0.4-13.6c0-0.3,0.1-0.7,0.3-0.9    l2.5-2.9c0.3-0.4,0.3-1-0.1-1.3c-0.6-0.5-1.6-1.3-2.4-1.8c-1.2-0.8-1.2-1.6-1.2-1.6l-0.1-11.4c0.2,0,0.4-0.1,0.5-0.3    c0.2-0.6,0.3-1.2,0.2-1.8c0-0.6-0.4-1.2-1-1.4c-2.6-0.9-9.4-3.3-11.1-4.2c-2.1-1-2.1-1.5-1.7-2.2s1.9-0.2,1.9-0.2    s10.2,3.8,11.9,4.3s2.6,0.3,2.9,0.1c0.3-0.3,0.5-0.7,0.8-1.1c0.3-0.5,0.1-1.1-0.4-1.4c0,0-0.1,0-0.1-0.1l-15.1-6.2    c-0.5-0.2-0.8-0.8-0.6-1.3c0.2-0.5,0.8-0.8,1.3-0.6l16.2,5.9c0.5,0.1,1-0.3,1.1-0.9c0-0.4-0.1-0.8-0.4-1c-3.8-1.4-15.4-5.6-16.3-6    c-1.1-0.4-1.5-1.2-1.2-2s1.6-0.4,1.6-0.4s16.9,6.2,18.3,6.6s1.7-0.4,2.2-1.3s-1.3-2-0.4-3.6s-0.4-1.9-0.4-1.9s-5.5-2.5-7.2-3.2    s-0.6-1.8-0.6-1.8s18.7-13.4,22.1-15.7s1.2-2.9,1.2-2.9S123.7,1.6,120.8,0.5s-3.3,0-3.3,0S66.7,57.2,65.6,59s2.1,1.4,3.1,1.3    s18.1,6.3,21.3,7.2s1.9,2.2,1.4,3s-5.4,5.2-7.4,6.9s-1.4,2.8-1.4,2.8c0.2,1.3,0.6,2.5,1.1,3.7c0.4,0.6,1.1,0.8,1.7,0.4    c0,0,0,0,0.1,0c0,0,34.2-31.7,36.2-33c1.2-0.8,2.6-0.9,3.9-0.3c0,0,19.4,6.6,22.1,7.4s5.3,2.1,5.1,2.9s-3.4,0.4-3.4,0.4    s-18.7-5.7-22.1-7s-5-0.2-5-0.2L87.4,86.1c-0.4,0.4-0.4,1,0,1.4l0.2,0.2c0.4,0.4,0.9,0.4,1.3,0c4.8-4.3,33-30.1,33.8-31    s3.3-0.5,3.3-0.5s15.9,5.4,20,6.8c4.1,1.4,5.8,1.8,5.8,2.9s-2.5,0.8-2.5,0.8s-17.7-5.6-20.8-6.7c-1.6-0.7-3.3-0.8-5-0.5L91,89.2    c-0.5,0.4-0.6,1.2-0.2,1.7l0.3,0.4c0.4,0.6,1.2,0.8,1.8,0.4c0.1,0,0.1-0.1,0.2-0.1c5.8-5.2,30.6-27.8,31.4-28.3s2.8,0,2.8,0    s18.5,5.9,21.4,7s3.6,1.6,3,2.5s-2.9,0.3-2.9,0.3l-23.6-7.2L91.9,97.1c-0.3,0.3-0.5,0.8-0.3,1.2l0.8,2.3c0,0.1,0,0.2,0,0.3l-0.3,8    c0,0.4-0.2,0.8-0.4,1.1l-2.6,3.3c-0.2,0.3-0.2,0.6,0,0.9l1.9,2.3c0.2,0.3,0.3,0.6,0.3,0.9l-0.4,13.7c-0.8,0.8-1.6,1.6-2.2,2.6    c-0.3,0.8,0.2,2.1-0.7,2.6s-9,8.1-9.4,8.6s-0.2,2.3-0.3,3.9s-3,2.7-4.1,3.3s-7.4,3.6-6.1,4.9c1,1.1,1.9,2.4,2.5,3.7    c0,0,0.3,4.9-0.3,5.4c-1.1,0.8-1.9,1.9-2.4,3.2c-0.3,1.4-1,1.3-3.4,2.5s-2,1.3-2,2.8c0,1.3,3.2,3.4,3.8,3.8s0.1,2.2,0.7,2.9    c0.9,1.1,1.3,2.5,0.3,3s-5.9-1.1-6.9-1.4s-3.3-2.2-4.9-2.2s-2.5,0.9-3.5,1.1c-1.3,0.2-2.5,0.5-3.6,1c-3-1.4-9.1-1-9.1-1l-0.5,2.9    c0.6,1.2,1.2,2.5,1.7,3.8c0.7,1.9,0.8,4,0.4,6c-0.2,0.8-1.5,2.2-0.8,3.2c0.5,0.9,0.8,2,0.7,3c0,0.4-4.2,3.4-6.6,5.1    s-8.3,3.4-9.1,3.6s-0.4,3.5-0.4,3.5s-3.2,3.5-3.6,4.3s0.1,7.4,0.8,8.5s2.9,2,2.6,3.3s-4.4,2.7-4.4,2.7c-7.8,0.6-20.1,5.2-20.1,5.2    s147.8,11.6,259.4-26.6C259.4,210.6,239.1,188.8,225.2,191.3z M102.2,57.7c0,1.8-0.4,1.9-0.4,1.9s-6.5,7-7.5,7.4    c-0.4,0.2-0.9,0.1-1.2-0.3c-0.1-0.1-0.1-0.2-0.1-0.3c0,0-0.1-6.1-0.1-6.8c-0.1-0.5,0.1-1.1,0.4-1.5c0.3-0.3,6.3-7.8,7.5-8.9    c1-1,1.4,0.8,1.4,0.8S102.2,55.9,102.2,57.7L102.2,57.7z M112.7,46c0,1.8-0.3,1.9-0.3,1.9s-6.1,7-7.1,7.5    c-0.4,0.2-0.9,0.1-1.1-0.3c0-0.1-0.1-0.2-0.1-0.3c0,0-0.1-6.2-0.1-6.9c-0.1-0.5,0-1.1,0.4-1.5c0.3-0.3,6-7.8,7.1-9    c1-1,1.4,0.8,1.4,0.8S112.8,44.2,112.7,46z M125.7,35.3c0,1.1-0.2,3.1-1.2,4c-0.5,0.3-1.1,0.5-1.7,0.4c-0.5,0-1,0.1-1.3,0.5    c-1.4,1.4-4.9,4.9-5.7,5.3c-0.4,0.2-0.9,0.1-1.1-0.3c0-0.1-0.1-0.2-0.1-0.3c0,0-0.1-8-0.1-8.7c-0.1-0.5,0-1.1,0.4-1.5    c0.3-0.3,8.9-9.6,10-10.8c1-1,1.4,0.8,1.4,0.8S125.7,33.5,125.7,35.3L125.7,35.3z M149.4,32.3c-0.1,1.2-0.8,13.7-0.8,13.7    s-0.5,1.7-2.9,1s-17.2-6-17.2-6s-0.8-0.2-0.8-3.1s0.5-13,0.5-13s-0.4-2.6,3.2-1.6s16.3,5.9,17.1,6.5    C149.2,30.4,149.6,31.4,149.4,32.3L149.4,32.3z M73.7,163c-1,0-1.7-1.2-1.7-2.8s0.8-2.8,1.7-2.8s1.7,1.2,1.7,2.8    S74.6,163,73.7,163z M81.7,158.3c-1.2,0-2.1-1.2-2.1-2.8s0.9-2.8,2.1-2.8s2.1,1.2,2.1,2.8S82.9,158.3,81.7,158.3L81.7,158.3z     M89.9,154c-0.9,0-1.6-1.2-1.6-2.8s0.7-2.8,1.6-2.8s1.6,1.2,1.6,2.8S90.8,154,89.9,154z M99.5,147.9c-1.2,0-2.1-1.2-2.1-2.8    s0.9-2.8,2.1-2.8s2.1,1.2,2.1,2.8S100.7,147.9,99.5,147.9L99.5,147.9z M109.8,141.7c-1.4,0-2.6-1.4-2.6-3.2s1.2-3.2,2.6-3.2    s2.6,1.4,2.6,3.2S111.3,141.7,109.8,141.7L109.8,141.7z M130.6,140c-1.4,0-2.6-1.6-2.6-3.6s1.1-3.6,2.6-3.6s2.6,1.6,2.6,3.6    S132,140,130.6,140z M141.1,142c-1.4,0-2.6-1.6-2.6-3.6s1.1-3.6,2.6-3.6s2.6,1.6,2.6,3.6S142.5,142,141.1,142z M173.6,41.4    c2.9,1,13.4,4.7,14,5.2c0.6,0.7,0.9,1.7,0.7,2.6c-0.1,1-0.4,12.3-0.4,12.3s-0.4,1.5-2.4,0.9s-13.9-5.2-13.9-5.2s-0.6-0.2-0.7-2.8    s0-11.6,0-11.6S170.7,40.4,173.6,41.4z M151.5,143.4c-1.7,0.3-3.2-0.9-3.5-2.5s0.9-3.2,2.5-3.5s3.2,0.9,3.5,2.5c0,0.2,0,0.3,0,0.5    C154.1,141.9,153,143.2,151.5,143.4L151.5,143.4z M160.1,145.3c-1.7,0.3-3.2-0.9-3.5-2.5s0.9-3.2,2.5-3.5s3.2,0.9,3.5,2.5    c0,0.2,0,0.3,0,0.5C162.7,143.8,161.6,145.1,160.1,145.3L160.1,145.3z M163,52.5c-3.7,0.7-7.3-2.2-8.2-6.5s1.4-8.4,5.1-9.1    s7.4,2.2,8.2,6.5S166.6,51.8,163,52.5z M169.2,146.9c-1.7,0.3-3.2-0.9-3.5-2.5s0.9-3.2,2.5-3.5s3.2,0.9,3.5,2.5c0,0.2,0,0.3,0,0.5    C171.9,145.4,170.7,146.7,169.2,146.9L169.2,146.9z M177.9,148.7c-1.7,0.3-3.2-0.9-3.5-2.5s0.9-3.2,2.5-3.5s3.2,0.9,3.5,2.5    c0,0.2,0,0.3,0,0.5C180.6,147.3,179.4,148.6,177.9,148.7L177.9,148.7z M186.3,150.5c-1.7,0.3-3.2-0.9-3.5-2.5s0.9-3.2,2.5-3.5    s3.2,0.9,3.5,2.5c0,0.2,0,0.3,0,0.5C188.9,149,187.8,150.4,186.3,150.5L186.3,150.5z M194.3,151.6c-1.4,0.3-2.8-0.5-3.2-1.9    c-0.3-1.4,0.5-2.8,1.9-3.2c1.4-0.3,2.8,0.5,3.2,1.9c0,0.2,0.1,0.4,0.1,0.6C196.4,150.3,195.6,151.4,194.3,151.6L194.3,151.6z     M201.5,152.2c-1.4,0.3-2.8-0.5-3.2-1.9c-0.3-1.4,0.5-2.8,1.9-3.2c1.4-0.3,2.8,0.5,3.2,1.9c0.1,0.2,0.1,0.4,0.1,0.6    C203.7,150.9,202.8,152.1,201.5,152.2L201.5,152.2z"
   id="path6"
   style="fill:#ffffff" />
		<g
   class="st0"
   id="g10"
   style="fill:#ffffff">
			<path
   d="M257.7,137.5l-11.5,12v21.6h-19.7V85.6h19.7v40l37.9-40h22l-35.4,38.1l37.5,47.4H285L257.7,137.5z"
   id="path8"
   style="fill:#ffffff" />
		</g>
		<g
   class="st0"
   id="g20"
   style="fill:#ffffff">
			<path
   d="M379.8,105.4v65.7h-18.1v-7.8c-5,5.7-12.3,8.8-20.4,8.8c-16.5,0-28.1-9.3-28.1-29.6v-37.2h19.1v34.3     c0,11,4.9,15.9,13.3,15.9c8.8,0,15.2-5.6,15.2-17.7v-32.5H379.8z"
   id="path12"
   style="fill:#ffffff" />
			<path
   d="M464.4,80.5v90.7h-18.2v-7.6c-4.8,5.7-11.7,8.6-20.5,8.6c-18.6,0-32.9-13.2-32.9-33.9c0-20.7,14.3-33.9,32.9-33.9     c8.1,0,14.9,2.6,19.7,7.9V80.5H464.4z M445.7,138.3c0-11.4-7.3-18.2-16.7-18.2c-9.5,0-16.9,6.8-16.9,18.2s7.3,18.2,16.9,18.2     C438.4,156.5,445.7,149.6,445.7,138.3z"
   id="path14"
   style="fill:#ffffff" />
			<path
   d="M548.3,105.4v65.7h-18.1v-7.8c-5,5.7-12.3,8.8-20.4,8.8c-16.5,0-28.1-9.3-28.1-29.6v-37.2h19.1v34.3     c0,11,4.9,15.9,13.3,15.9c8.8,0,15.2-5.6,15.2-17.7v-32.5H548.3z"
   id="path16"
   style="fill:#ffffff" />
			<path
   d="M559.6,165l6.4-13.7c5.9,3.8,14.8,6.4,22.9,6.4c8.8,0,12.1-2.3,12.1-6c0-10.8-39.7,0.2-39.7-26     c0-12.5,11.2-21.3,30.4-21.3c9,0,19.1,2.1,25.3,5.7l-6.4,13.6c-6.5-3.7-13-4.9-18.9-4.9c-8.6,0-12.2,2.7-12.2,6.1     c0,11.2,39.7,0.4,39.7,26.3c0,12.2-11.4,20.9-31,20.9C577,172.1,565.8,169.1,559.6,165z"
   id="path18"
   style="fill:#ffffff" />
		</g>
	</g>
</g>
</svg>
