<?xml version="1.0" encoding="UTF-8" standalone="no"?>
<svg
   viewBox="0 0 397.04 122.65"
   version="1.1"
   id="svg36"
   sodipodi:docname="madiun.svg"
   inkscape:version="1.1 (c68e22c387, 2021-05-23)"
   xmlns:inkscape="http://www.inkscape.org/namespaces/inkscape"
   xmlns:sodipodi="http://sodipodi.sourceforge.net/DTD/sodipodi-0.dtd"
   xmlns="http://www.w3.org/2000/svg"
   xmlns:svg="http://www.w3.org/2000/svg">
  <sodipodi:namedview
     id="namedview38"
     pagecolor="#ffffff"
     bordercolor="#666666"
     borderopacity="1.0"
     inkscape:pageshadow="2"
     inkscape:pageopacity="0.0"
     inkscape:pagecheckerboard="0"
     showgrid="false"
     inkscape:zoom="2.7755389"
     inkscape:cx="198.33986"
     inkscape:cy="61.429511"
     inkscape:window-width="1440"
     inkscape:window-height="847"
     inkscape:window-x="-8"
     inkscape:window-y="-8"
     inkscape:window-maximized="1"
     inkscape:current-layer="svg36" />
  <defs
     id="defs4">
    <style
       id="style2">.cls-1{font-size:77.66px;font-family:Montserrat-SemiBold, Montserrat;font-weight:600;}.cls-2{letter-spacing:0em;}.cls-3{letter-spacing:0em;}</style>
  </defs>
  <title
     id="title6">madiun</title>
  <g
     id="Layer_2"
     data-name="Layer 2"
     style="fill:#ffffff">
    <g
       id="Layer_1-2"
       data-name="Layer 1"
       style="fill:#ffffff">
      <path
         d="M.6,122.52s14.31-19.74,30.15-28.6c0,0,11.28,18.33,14.64,21.35l-3.09,7.38Z"
         id="path8"
         style="fill:#ffffff" />
      <path
         d="M73.52,122.52H116.7s-16-20.81-31.56-29.07c0,0-13.83,14.1-19.47,13.36Z"
         id="path10"
         style="fill:#ffffff" />
      <path
         d="M32.5,92.64S42,87.07,43.17,86.87,60.09,86.4,66,83c0,0,16,7.79,17.39,8.93,0,0-6.31,7.39-12.42,10.54-5.93,3.06-5.3,2.35-7.92,2.35s-2.89,16.79-3,17.12-7.25.34-16.18-12.42S32.5,92.64,32.5,92.64Z"
         id="path12"
         style="fill:#ffffff" />
      <path
         d="M59.36,82.64s-5.58,1.41-17.26,1.68-25,9.4-27.19,11.75S3.29,104.93,0,105.53c0,0,9-6.91,9-11.14s-5.24-3-6-5.31,7.05,2.49,11.35.67S36.93,77.47,41.63,77.06C45.44,76.74,53.18,76.93,59.36,82.64Z"
         id="path14"
         style="fill:#ffffff" />
      <path
         d="M44.62,74.26s8.86-.91,18.08,7.5c0,0,7.3-2.46,13.49-14.7s6.5-12.19,6.5-12.19-20.14,8.31-22.21,10S46,74.31,44.62,74.26Z"
         id="path16"
         style="fill:#ffffff" />
      <path
         d="M37.92,74.71s-4.44-10.55-.55-15.51c6.54-8.36,31.32-16,38.17-19A150,150,0,0,1,61.49,60C57.24,64.83,40.14,74.31,37.92,74.71Z"
         id="path18"
         style="fill:#ffffff" />
      <path
         d="M66.41,58.67a114.62,114.62,0,0,0,7.65-12.43C76.75,40.81,83.71,36,92.32,32.35c8.8-3.76,7.52-6.72,7.46-8.06s-2.69-9.2-1.41-14.57c0,0-.67,8.12,4,8s10.2-6,12.48-11.48c0,0-.6,8.33-8.19,18.2S91.05,42.15,89.91,43.69a41.74,41.74,0,0,1-7.59,8C79.23,53.9,66.41,58.67,66.41,58.67Z"
         id="path20"
         style="fill:#ffffff" />
      <path
         d="M48,23.1c-.91-.81-2.89-1.22-4.94-1.43,1.18-8.18,7.6-14.44,15.35-14.44S72.54,13.4,73.78,21.5c-9.8-.56-15.16.71-19.29,2.2C50,25.31,50.31,25.11,48,23.1Z"
         id="path22"
         style="fill:#ffffff" />
      <path
         d="M74,24.38c0,9.46-7,17.14-15.54,17.14S42.91,33.84,42.91,24.38v-.12a13.74,13.74,0,0,1,2.11.2c1.26.3,3.78,3.27,5.79,3.47s4.84-1.61,6.85-2.47a33.51,33.51,0,0,1,6.8-1.31l9.53.1Z"
         id="path24"
         style="fill:#ffffff" />
      <path
         d="M55.25.56s11-2.39,16.51,2.69A14.55,14.55,0,0,1,75.94,17s-2.77-6.39-6.5-8.51-7.95-5.44-9.36-6A41.85,41.85,0,0,0,55.25.56Z"
         id="path26"
         style="fill:#ffffff" />
      <text
         class="cls-1"
         transform="translate(93.49 98.48)"
         id="text32"
         style="fill:#ffffff">M<tspan
   class="cls-2"
   x="74.16"
   y="0"
   id="tspan28"
   style="fill:#ffffff">a</tspan><tspan
   class="cls-3"
   x="121.68"
   y="0"
   id="tspan30"
   style="fill:#ffffff">diun</tspan></text>
    </g>
  </g>
</svg>
