<?xml version="1.0" encoding="UTF-8" standalone="no"?>
<svg
   viewBox="0 0 413.98 162.12"
   version="1.1"
   id="svg38"
   sodipodi:docname="madiun.svg"
   inkscape:version="1.1 (c68e22c387, 2021-05-23)"
   xmlns:inkscape="http://www.inkscape.org/namespaces/inkscape"
   xmlns:sodipodi="http://sodipodi.sourceforge.net/DTD/sodipodi-0.dtd"
   xmlns="http://www.w3.org/2000/svg"
   xmlns:svg="http://www.w3.org/2000/svg">
  <sodipodi:namedview
     id="namedview40"
     pagecolor="#ffffff"
     bordercolor="#666666"
     borderopacity="1.0"
     inkscape:pageshadow="2"
     inkscape:pageopacity="0.0"
     inkscape:pagecheckerboard="0"
     showgrid="false"
     inkscape:zoom="2.6619643"
     inkscape:cx="206.80217"
     inkscape:cy="80.955256"
     inkscape:window-width="1440"
     inkscape:window-height="847"
     inkscape:window-x="-8"
     inkscape:window-y="-8"
     inkscape:window-maximized="1"
     inkscape:current-layer="svg38" />
  <defs
     id="defs4">
    <style
       id="style2">.cls-1{font-size:77.66px;font-family:Montserrat-SemiBold, Montserrat;font-weight:600;}.cls-2{letter-spacing:0em;}.cls-3{letter-spacing:0em;}</style>
  </defs>
  <title
     id="title6">madiun</title>
  <text
     class="cls-1"
     id="text12"
     x="118.43"
     y="141.53999"
     style="fill:#ffffff">Madiun</text>
  <path
     d="m 0,120.27 c 0,0 12.3,-26.79 40,-16.34 27.7,10.45 46,19.18 61.56,4.75 0,0 1,10.29 -20.11,14.55 -21.11,4.26 -23.4,-1.39 -39.06,10.39 0.01,0 -17.85,-18.88 -42.39,-13.35 z"
     id="path14"
     style="fill:#ffffff" />
  <path
     d="m 104.35,113.52 c 0,0 5.87,18.24 -21.67,30.19 -20.7,9 -39.45,-4.78 -33.75,-8.56 5.88,-3.89 16.83,-4.86 20.51,-5 3.68,-0.14 27.78,-0.79 34.91,-16.63 z"
     id="path16"
     style="fill:#ffffff" />
  <path
     d="m 103.94,99.43 c 0,0 -3.93,-25.77 28,-34 a 15.88,15.88 0 0 0 0.84,15 c 0,0 -25.53,0.57 -28.84,19 z"
     id="path18"
     style="fill:#ffffff" />
  <path
     d="m 135.22,79 c 0,0 -1.7,-3.27 -0.62,-4.14 1.08,-0.87 9.29,-2.6 11.19,0 0,0.05 -8.79,2.39 -10.57,4.14 z"
     id="path20"
     style="fill:#ffffff" />
  <path
     d="m 134.77,72.87 c 0,0 -0.93,-6.09 4.58,-6.74 5.51,-0.65 14,4.18 14.25,6.07 0.25,1.89 -9.48,-1.52 -18.83,0.67 z"
     id="path22"
     style="fill:#ffffff" />
  <path
     d="m 139.86,64.59 c 0,0 3.58,-0.77 5.53,1.48 0,0 3,-4.51 0.07,-7.71 0,0 -3.91,6.18 -5.6,6.23 z"
     id="path24"
     style="fill:#ffffff" />
  <path
     d="m 61.19,105.55 c 0,0 18.49,8.16 28,4.72 9.51,-3.44 10.43,-8.62 10.43,-8.62 0,0 -7.07,-28.38 25.89,-37.88 L 76.34,62 c 0,0 -0.91,7.23 -16.05,4.87 -15.14,-2.36 -46.93,-5.02 -41.57,-46.41 0,0 -21.59,27.35 4.18,49.22 25.77,21.87 35.24,24.84 38.29,35.87 z"
     id="path26"
     style="fill:#ffffff" />
  <path
     d="m 46.77,48 c 0,0 -5.46,-1.89 -5.38,-3.7 0.08,-1.81 9.63,-0.84 16.12,-9 6.49,-8.16 6.06,-10 6.85,-10.67 0.79,-0.67 4.87,-0.26 9.55,14.74 0,0 0.27,5.64 -15.66,8.07 0,0 2.49,2.84 4.59,2.73 a 4.35,4.35 0 0 0 2.92,-1 c 0,0 0.12,-2.69 1.5,-2.89 1.38,-0.2 7.19,3.09 5.95,6.8 -0.76,2.31 -4.3,-0.86 -4.4,0.11 -0.1,0.97 2.61,1.94 2.67,2.87 0.06,0.93 -0.72,1.43 -1.87,1.82 -1.15,0.39 1.15,1.15 2,0.94 0.85,-0.21 0.39,1.41 -0.61,1.92 -1,0.51 -2,0.75 -0.15,2.11 1.85,1.36 -3.84,2.31 -5,1.92 C 64.69,64.38 50.56,60.93 46.77,48 Z"
     id="path28"
     style="fill:#ffffff" />
  <path
     d="M 40.18,41.42 C 41,42.56 47.38,39.7 47.4,38 c 0.02,-1.7 -0.84,0.44 -5.64,-1.78 -2.53,-1.18 -2.39,-3.14 -3.93,-2.6 0,-0.02 -1.47,2.64 2.35,7.8 z"
     id="path30"
     style="fill:#ffffff" />
  <path
     d="m 33.62,21.07 c 0,0 1.05,-11.86 7.5,-17.64 3.82,-3.41 6.35,-4 6.87,-3 0.52,1 -4.45,6.87 -3.32,8 1.13,1.13 11.45,3.15 10.1,5.42 C 54,15.1 44.69,9.24 33.62,21.07 Z"
     id="path32"
     style="fill:#ffffff" />
  <path
     d="M 53.86,62.13 C 53.86,62.13 28,51.74 29.07,26.86 29.49,17 33,6.57 34.16,5.08 35.32,3.59 28.3,7.22 25.69,12.19 23.08,17.16 18.33,37 32.38,51.3 c 6.75,6.88 19.38,11.19 21.48,10.83 z"
     id="path34"
     style="fill:#ffffff" />
</svg>
