<svg xmlns="http://www.w3.org/2000/svg" viewBox="0 0 431.58 100.55"><title>ponorogo</title><g id="Layer_2" data-name="Layer 2"><g id="Layer_1-2" data-name="Layer 1"><path d="M180.14,86.3s-17.3-18.57-7.58-38.47c5.94-12.15,10.92-10.25,11.14-23.4,0,0,.45-19.16,16.57-19.38S221.06,21.39,222,27.26c0,0,2.52-13.22-6.24-21s-23.62-9.14-32.23.89-3.27,19.46-8.84,26.44-14,15.37-12.11,30,8.32,22.95,8.32,22.95Z"/><path d="M179,54.36s9.22-13.73,21.46-9.8c10.17,3.27,8.76,11.81,8.61,13.37,0,0-3-8.47-11.14-8S185.41,51.77,181,60.83,185.37,83.71,194.62,87s20.57,4.6,30-4,10.76-15.52,10.54-22.06-.67-13.22-6.61-18.49c0,0,9,14.41-1.78,28.14s-24.43,11.89-32.45,5.57S186.16,61,191.8,57.71s9.95,3.71,6.46,6.46-6,1.26-6,1.26S197,74.34,208.66,71s14-14.78,12-21.91S211.82,34.77,202.35,35C192.54,35.2,183.85,39.73,179,54.36Z"/><path d="M48.36,46.74c0,12.71-9.41,20.55-24.59,20.55h-13V84H0V26.19H23.77C39,26.19,48.36,34,48.36,46.74Zm-10.81,0c0-7.26-4.87-11.47-14.28-11.47H10.73V58.21H23.27C32.68,58.21,37.55,54,37.55,46.74Z"/><path d="M54.3,61.92c0-13.2,9.9-22.52,23.44-22.52,13.7,0,23.52,9.32,23.52,22.52S91.44,84.54,77.74,84.54C64.2,84.54,54.3,75.13,54.3,61.92Zm36.56,0c0-8.41-5.61-13.78-13.12-13.78s-13,5.37-13,13.78,5.61,13.79,13,13.79S90.86,70.34,90.86,61.92Z"/><path d="M154.57,58.71V84H144.25V60c0-7.84-3.88-11.64-10.48-11.64-7.35,0-12.3,4.46-12.3,13.29V84H111.16V39.89H121v5.69c3.38-4,8.74-6.18,15.18-6.18C146.73,39.4,154.57,45.42,154.57,58.71Z"/><path d="M269.42,39.4v9.82A12.7,12.7,0,0,0,267,49c-7.84,0-12.79,4.62-12.79,13.62V84H243.92V39.89h9.82v6.44C256.71,41.71,262.08,39.4,269.42,39.4Z"/><path d="M274.12,61.92c0-13.2,9.91-22.52,23.44-22.52,13.7,0,23.52,9.32,23.52,22.52s-9.82,22.62-23.52,22.62C284,84.54,274.12,75.13,274.12,61.92Zm36.56,0c0-8.41-5.61-13.78-13.12-13.78s-13,5.37-13,13.78,5.61,13.79,13,13.79S310.68,70.34,310.68,61.92Z"/><path d="M374.72,39.89V77.27c0,16-8.34,23.28-23.77,23.28-8.25,0-16.42-2.15-21.45-6.27l4.62-7.76c3.88,3.22,10.15,5.28,16.25,5.28,9.74,0,14-4.46,14-13.37V76.12c-3.63,4-8.83,5.86-14.77,5.86C337,82,327.35,73.4,327.35,60.6S337,39.4,349.63,39.4c6.19,0,11.64,2,15.27,6.35V39.89ZM364.57,60.6c0-7.42-5.61-12.46-13.37-12.46s-13.45,5-13.45,12.46,5.61,12.63,13.45,12.63S364.57,68.11,364.57,60.6Z"/><path d="M384.62,61.92c0-13.2,9.9-22.52,23.44-22.52s23.52,9.32,23.52,22.52-9.83,22.62-23.52,22.62S384.62,75.13,384.62,61.92Zm36.56,0c0-8.41-5.61-13.78-13.12-13.78s-13,5.37-13,13.78,5.61,13.79,13,13.79S421.18,70.34,421.18,61.92Z"/></g></g></svg>