<?xml version="1.0" encoding="UTF-8" standalone="no"?>
<svg
   viewBox="0 0 334.89 86.64"
   version="1.1"
   id="svg34"
   sodipodi:docname="semarang.svg"
   inkscape:version="1.1 (c68e22c387, 2021-05-23)"
   xmlns:inkscape="http://www.inkscape.org/namespaces/inkscape"
   xmlns:sodipodi="http://sodipodi.sourceforge.net/DTD/sodipodi-0.dtd"
   xmlns="http://www.w3.org/2000/svg"
   xmlns:svg="http://www.w3.org/2000/svg">
  <sodipodi:namedview
     id="namedview36"
     pagecolor="#ffffff"
     bordercolor="#666666"
     borderopacity="1.0"
     inkscape:pageshadow="2"
     inkscape:pageopacity="0.0"
     inkscape:pagecheckerboard="0"
     showgrid="false"
     inkscape:zoom="3.2906326"
     inkscape:cx="167.59695"
     inkscape:cy="43.304743"
     inkscape:window-width="1440"
     inkscape:window-height="847"
     inkscape:window-x="-8"
     inkscape:window-y="-8"
     inkscape:window-maximized="1"
     inkscape:current-layer="Layer_2" />
  <defs
     id="defs4">
    <style
       id="style2">.cls-1{fill:none;stroke:#000;stroke-miterlimit:10;stroke-width:0.21px;}.cls-2{font-size:47.35px;font-family:Montserrat-SemiBold, Montserrat;font-weight:600;}.cls-3{letter-spacing:-0.01em;}.cls-4{letter-spacing:0em;}.cls-5{letter-spacing:0em;}</style>
  </defs>
  <title
     id="title6">semarang</title>
  <g
     id="Layer_2"
     data-name="Layer 2"
     style="fill:#000000">
    <path
       d="m 325.34,19.85 c -0.78,-2.38 -2.14,-4.25 -4.44,-4.46 -2.3,-0.21 -4.41,3.1 -4.41,3.1 a 4.4,4.4 0 0 0 -4.24,-3.66 c -5,-0.48 -6.2,3.42 -6.2,3.42 l -1.66,-0.19 c 0.48,-2.91 -2.7,-5.77 -2.7,-5.77 -0.19,-1.33 0.56,-3.63 1,-7.45 C 303.13,1.02 300.84,0 300.84,0 c -6.12,2.62 -8,12.34 -8,12.34 -4.17,-3.82 -9.19,0.91 -9.19,0.91 0,0 0,-0.59 -4.28,-7 C 275.09,-0.16 267.3,0 267.3,0 a 24.66,24.66 0 0 0 3.9,16.19 37.59,37.59 0 0 1 4.68,8.47 c 0,0 -1.63,0.43 -3.26,5.16 -1.63,4.73 -4.25,5.64 -4.25,5.64 1.63,0.32 1.5,1.17 2.65,1.14 A 8.38,8.38 0 0 0 275,35 c -0.43,5.53 -6.76,7.21 -6.76,7.21 a 13,13 0 0 0 7.46,1.46 10.14,10.14 0 0 0 -2.2,1.51 9.82,9.82 0 0 1 -4.33,1.95 c 2.57,2 9.78,-0.13 9.78,-0.13 -0.32,0.5 -5.53,4.51 -5.53,4.51 a 28.67,28.67 0 0 0 10.5,-2.27 c 0,0 0.08,0.75 -1,1.44 a 33.66,33.66 0 0 0 -3.26,2.89 11.1,11.1 0 0 0 7,-1.52 13.61,13.61 0 0 1 3.05,-1.69 c 0,0 0.21,0.78 -1.34,2.86 -2.13,2.87 -1.76,3.53 -1.76,3.53 2.78,-0.19 5.1,-1.36 7.72,-4 2.62,-2.64 3.53,-2.4 3.53,-2.4 2.08,0.56 3.28,2.78 5.74,5.16 2.46,2.38 4.86,2.35 7.11,4.35 2.25,2 1.17,3.58 1.17,3.58 A 7.23,7.23 0 0 0 316,58 c 2.62,1.65 1.15,6.12 1.15,6.12 a 23,23 0 0 0 5.72,-6.44 c 1.57,-3 -0.86,-6.52 -0.86,-6.52 -0.45,0.64 -3,2.3 -6.87,2.19 -3.87,-0.11 -10.34,-3.21 -13.6,-8 -3.26,-4.79 -5.21,-6.44 -7.24,-7.35 -2.03,-0.91 -2.7,-0.3 -5.74,-0.51 -3.04,-0.21 -4,-4 -2.7,-5.69 1.3,-1.69 2.38,-1.82 7.32,-1.71 4.94,0.11 29.58,-2.75 29.58,-2.75 1.34,0.34 2,2.32 2,2.32 1.24,-2.06 1.35,-7.43 0.58,-9.81 z m -34,6.94 c -2.86,0 -5.18,-2.7 -5.18,-6 0,-3.3 2.32,-6 5.18,-6 2.86,0 5.17,2.69 5.17,6 0,3.31 -2.29,6 -5.15,6 z m 20.24,-1.92 c -1.57,0 -2.85,-1.55 -2.85,-3.46 A 3.19,3.19 0 0 1 311.6,18 c 1.58,0 2.85,1.54 2.85,3.45 0,1.91 -1.27,3.42 -2.85,3.42 z m 10.21,0 c -0.81,0 -1.47,-1.55 -1.47,-3.46 0,-1.91 0.68,-3.41 1.49,-3.41 0.81,0 1.48,1.54 1.48,3.45 0,1.91 -0.66,3.42 -1.48,3.42 z m -29.28,-7.18 c -1.63,0 -2.94,1.62 -2.94,3.63 0,2.01 1.33,3.68 2.96,3.68 1.63,0 2.94,-1.63 2.94,-3.64 0,-2.01 -1.32,-3.67 -2.94,-3.67 z"
       id="path8"
       style="fill:#ffffff" />
    <path
       d="m 291.08,30.89 c 0,0 12.12,1.35 19.38,0.42 a 9.09,9.09 0 0 1 -0.6,5.81 5.81,5.81 0 0 0 3.85,-3.12 5.47,5.47 0 0 0 0.64,-3.17 l 6.8,-0.75 a 12.17,12.17 0 0 1 -1.1,5.6 5.93,5.93 0 0 0 3.95,-5.43 c 0,-2.5 -1.57,-1.82 -1.57,-1.82 0,0 -19.88,2.64 -31.35,2.46 z"
       id="path10"
       style="fill:#ffffff" />
    <path
       d="m 294.33,34.41 a 44.89,44.89 0 0 1 12.67,4.28 93.55,93.55 0 0 0 16.81,6.63 c 2,0.39 7.21,1.62 10.26,-3.07 1.39,-2.14 0.64,-4.2 0.32,-4.38 -0.32,-0.18 -0.89,-0.36 -4.66,2.32 -3.77,2.68 -6.84,2.73 -11.55,1 -4.71,-1.73 -10,-4.59 -16.24,-5.7 a 56,56 0 0 0 -7.61,-1.08 z"
       id="path12"
       style="fill:#ffffff" />
    <path
       d="m 290.16,36.44 c 0,0 4.56,-0.85 8.51,3.64 3.95,4.49 8.12,9.72 12.22,11.33 4.1,1.61 8.55,0.53 9.69,-0.43 1.14,-0.96 1.25,-4.81 0.64,-5.81 0,0 -0.57,3.17 -2.63,4.17 a 6.05,6.05 0 0 1 -4.74,0.43 c 0,0 0.07,-3.81 -0.79,-4.7 0,0 -2.49,3.24 -2.35,3.52 0,0 -1.49,0.37 -8.16,-7.66 -3.31,-3.99 -8.26,-6.09 -12.39,-4.49 z"
       id="path14"
       style="fill:#ffffff" />
    <path
       class="cls-1"
       d="m 295.47,21.32 c 0,2 -1.32,3.64 -2.94,3.64 -1.62,0 -2.94,-1.63 -2.94,-3.64 0,-2.01 1.31,-3.63 2.94,-3.63 1.63,0 2.94,1.62 2.94,3.63 z"
       id="path16"
       style="fill:#ffffff" />
    <path
       d="m 295.47,21.32 c 0,2 -1.32,3.64 -2.94,3.64 -1.62,0 -2.94,-1.63 -2.94,-3.64 0,-2.01 1.31,-3.63 2.94,-3.63 1.63,0 2.94,1.62 2.94,3.63 z"
       id="path18"
       style="fill:#ffffff" />
    <text
       class="cls-2"
       id="text28"
       style="fill:#ffffff;stroke-width:1.29983"
       x="38.528175"
       y="45.74078">Semarang</text>
    <path
       d="m 268.32,52.37 c 0,0 -20.32,33.46 -122.17,10.34 C 64.88,44.25 12.9,57.54 0,59.44 c 0,0 48.78,-8.29 96.36,3 47.58,11.29 138.41,49.72 200,-2.59 0,0 0.59,1.84 -14.11,-1 -6.47,-1.17 -5.47,-4.85 -13.93,-6.48 z"
       id="path30"
       style="fill:#ffffff" />
  </g>
</svg>
