<svg xmlns="http://www.w3.org/2000/svg" viewBox="0 0 334.89 86.64"><defs><style>.cls-1{fill:none;stroke:#000;stroke-miterlimit:10;stroke-width:0.21px;}.cls-2{font-size:47.35px;font-family:Montserrat-SemiBold, Montserrat;font-weight:600;}.cls-3{letter-spacing:-0.01em;}.cls-4{letter-spacing:0em;}.cls-5{letter-spacing:0em;}</style></defs><title>semarang</title><g id="Layer_2" data-name="Layer 2"><g id="Layer_1-2" data-name="Layer 1"><path d="M325.34,19.85c-.78-2.38-2.14-4.25-4.44-4.46s-4.41,3.1-4.41,3.1a4.4,4.4,0,0,0-4.24-3.66c-5-.48-6.2,3.42-6.2,3.42l-1.66-.19c.48-2.91-2.7-5.77-2.7-5.77-.19-1.33.56-3.63,1-7.45S300.84,0,300.84,0c-6.12,2.62-8,12.34-8,12.34-4.17-3.82-9.19.91-9.19.91s0-.59-4.28-7S267.3,0,267.3,0a24.66,24.66,0,0,0,3.9,16.19,37.59,37.59,0,0,1,4.68,8.47s-1.63.43-3.26,5.16-4.25,5.64-4.25,5.64c1.63.32,1.5,1.17,2.65,1.14A8.38,8.38,0,0,0,275,35c-.43,5.53-6.76,7.21-6.76,7.21a13,13,0,0,0,7.46,1.46,10.14,10.14,0,0,0-2.2,1.51,9.82,9.82,0,0,1-4.33,1.95c2.57,2,9.78-.13,9.78-.13-.32.5-5.53,4.51-5.53,4.51a28.67,28.67,0,0,0,10.5-2.27s.08.75-1,1.44a33.66,33.66,0,0,0-3.26,2.89,11.1,11.1,0,0,0,7-1.52,13.61,13.61,0,0,1,3.05-1.69s.21.78-1.34,2.86c-2.13,2.87-1.76,3.53-1.76,3.53,2.78-.19,5.1-1.36,7.72-4s3.53-2.4,3.53-2.4c2.08.56,3.28,2.78,5.74,5.16s4.86,2.35,7.11,4.35,1.17,3.58,1.17,3.58A7.23,7.23,0,0,0,316,58c2.62,1.65,1.15,6.12,1.15,6.12a23,23,0,0,0,5.72-6.44c1.57-3-.86-6.52-.86-6.52-.45.64-3,2.3-6.87,2.19s-10.34-3.21-13.6-8-5.21-6.44-7.24-7.35-2.7-.3-5.74-.51-4-4-2.7-5.69,2.38-1.82,7.32-1.71,29.58-2.75,29.58-2.75c1.34.34,2,2.32,2,2.32C326,27.6,326.11,22.23,325.34,19.85Zm-34,6.94c-2.86,0-5.18-2.7-5.18-6s2.32-6,5.18-6,5.17,2.69,5.17,6S294.22,26.79,291.36,26.79Zm20.24-1.92c-1.57,0-2.85-1.55-2.85-3.46A3.19,3.19,0,0,1,311.6,18c1.58,0,2.85,1.54,2.85,3.45S313.18,24.87,311.6,24.87Zm10.21,0c-.81,0-1.47-1.55-1.47-3.46S321,18,321.81,18s1.48,1.54,1.48,3.45S322.63,24.87,321.81,24.87Zm-29.28-7.18c-1.63,0-2.94,1.62-2.94,3.63S290.9,25,292.53,25s2.94-1.63,2.94-3.64S294.15,17.69,292.53,17.69Z"/><path d="M291.08,30.89s12.12,1.35,19.38.42a9.09,9.09,0,0,1-.6,5.81A5.81,5.81,0,0,0,313.71,34a5.47,5.47,0,0,0,.64-3.17l6.8-.75a12.17,12.17,0,0,1-1.1,5.6A5.93,5.93,0,0,0,324,30.25c0-2.5-1.57-1.82-1.57-1.82S302.55,31.07,291.08,30.89Z"/><path d="M294.33,34.41A44.89,44.89,0,0,1,307,38.69a93.55,93.55,0,0,0,16.81,6.63c2,.39,7.21,1.62,10.26-3.07,1.39-2.14.64-4.2.32-4.38s-.89-.36-4.66,2.32-6.84,2.73-11.55,1-10-4.59-16.24-5.7A56,56,0,0,0,294.33,34.41Z"/><path d="M290.16,36.44s4.56-.85,8.51,3.64,8.12,9.72,12.22,11.33,8.55.53,9.69-.43,1.25-4.81.64-5.81c0,0-.57,3.17-2.63,4.17a6.05,6.05,0,0,1-4.74.43s.07-3.81-.79-4.7c0,0-2.49,3.24-2.35,3.52,0,0-1.49.37-8.16-7.66C299.24,36.94,294.29,34.84,290.16,36.44Z"/><path class="cls-1" d="M295.47,21.32c0,2-1.32,3.64-2.94,3.64s-2.94-1.63-2.94-3.64,1.31-3.63,2.94-3.63S295.47,19.31,295.47,21.32Z"/><path d="M295.47,21.32c0,2-1.32,3.64-2.94,3.64s-2.94-1.63-2.94-3.64,1.31-3.63,2.94-3.63S295.47,19.31,295.47,21.32Z"/><text class="cls-2" transform="translate(14.19 48.87)">Sema<tspan class="cls-3" x="137.82" y="0">r</tspan><tspan x="157.33" y="0">a</tspan><tspan class="cls-4" x="186.07" y="0">n</tspan><tspan class="cls-5" x="218.74" y="0">g</tspan></text><path d="M268.32,52.37S248,85.83,146.15,62.71C64.88,44.25,12.9,57.54,0,59.44c0,0,48.78-8.29,96.36,3s138.41,49.72,200-2.59c0,0,.59,1.84-14.11-1C275.78,57.68,276.78,54,268.32,52.37Z"/></g></g></svg>