<?xml version="1.0" encoding="UTF-8" standalone="no"?>
<svg
   viewBox="0 0 229.09 88.06"
   version="1.1"
   id="svg49"
   sodipodi:docname="solo.svg"
   inkscape:version="1.1 (c68e22c387, 2021-05-23)"
   xmlns:inkscape="http://www.inkscape.org/namespaces/inkscape"
   xmlns:sodipodi="http://sodipodi.sourceforge.net/DTD/sodipodi-0.dtd"
   xmlns="http://www.w3.org/2000/svg"
   xmlns:svg="http://www.w3.org/2000/svg">
  <sodipodi:namedview
     id="namedview51"
     pagecolor="#ffffff"
     bordercolor="#666666"
     borderopacity="1.0"
     inkscape:pageshadow="2"
     inkscape:pageopacity="0.0"
     inkscape:pagecheckerboard="0"
     showgrid="false"
     inkscape:zoom="3.9230552"
     inkscape:cx="127.32423"
     inkscape:cy="35.049214"
     inkscape:window-width="1440"
     inkscape:window-height="847"
     inkscape:window-x="-8"
     inkscape:window-y="-8"
     inkscape:window-maximized="1"
     inkscape:current-layer="svg49" />
  <defs
     id="defs33">
    <style
       id="style31">.cls-1{font-size:78.98px;font-family:Montserrat-SemiBold, Montserrat;font-weight:600;}.cls-2{letter-spacing:-0.01em;}</style>
  </defs>
  <title
     id="title35">solo</title>
  <g
     id="Layer_2"
     data-name="Layer 2"
     style="fill:#ffffff">
    <g
       id="Layer_1-2"
       data-name="Layer 1"
       style="fill:#ffffff">
      <path
         d="M59.63,57.31c.31.18-6.62-18.65,4.21-31s24.42-8.54,27.79-7a19.59,19.59,0,0,1,8,8.14c.92,2.29,3.93,5.41,5.22,5.13a5.43,5.43,0,0,0,2.68-1.8s2,8.58-1.64,12.83-3.09,3.65-3,5,1.68,1.69,2.17,1.65,1.72-.08,1.72-.08.16,2.2-6.34,3.93-7.5,2-8,3.37.73,2,1.49,2.16a6.68,6.68,0,0,0,1.52.12s-.64,2.73-7.7,2.49-11.83-3-12.51-5-1.2-4.78.24-6.58,4.49-2.25,5.65-1.24a1.58,1.58,0,0,1,.13,2.5,2.36,2.36,0,0,0-2-2.16c-1.9-.39-3.49,2.16-3.52,2.61s-.48,2,1.87,4,5.94.8,6.85-.21c1.18-1.29,2-1.86,2.41-5.77s-.93-7-4.72-9.08S72.05,39.89,69,42.78s-4.84,7.73-4,11.37a16.17,16.17,0,0,0,9.15,11.58c6.4,3.19,16.54,2.37,21.86-.24s6.92-3.73,9-5.72,2.49-2.76,2.49-2.91a21.91,21.91,0,0,1-3.46,2.07,2.07,2.07,0,0,1-1.71-.48S108,56,110.61,51.62s3.22-10.59,2.53-18.38c0,0-.67,3.94-2,3.31,0,0,.27-5.8-1.77-9.32a21.82,21.82,0,0,0-5.36-6.47,24.33,24.33,0,0,1,1,3.73s-4.76-4.84-8.91-6.76-7.82-4.22-15.91-4.16a28.51,28.51,0,0,0-14.55,4.37c-.85.42-7.1,4.66-10,10.67S52.23,37.88,53,43.8,58.22,56.46,59.63,57.31Z"
         id="path37"
         style="fill:#ffffff" />
      <text
         class="cls-1"
         transform="translate(0 67.13)"
         id="text39"
         style="fill:#ffffff">S</text>
      <text
         class="cls-1"
         transform="translate(116.3 67.13)"
         id="text45"
         style="fill:#ffffff"><tspan
           class="cls-2"
           id="tspan41"
           style="fill:#ffffff">L</tspan><tspan
           x="46.29"
           y="0"
           id="tspan43"
           style="fill:#ffffff">O</tspan></text>
    </g>
  </g>
</svg>
