<?xml version="1.0" encoding="UTF-8" standalone="no"?>
<svg
   viewBox="0 0 292.87 188.06"
   version="1.1"
   id="svg30"
   sodipodi:docname="sragen.svg"
   inkscape:version="1.1 (c68e22c387, 2021-05-23)"
   xmlns:inkscape="http://www.inkscape.org/namespaces/inkscape"
   xmlns:sodipodi="http://sodipodi.sourceforge.net/DTD/sodipodi-0.dtd"
   xmlns="http://www.w3.org/2000/svg"
   xmlns:svg="http://www.w3.org/2000/svg">
  <sodipodi:namedview
     id="namedview32"
     pagecolor="#ffffff"
     bordercolor="#666666"
     borderopacity="1.0"
     inkscape:pageshadow="2"
     inkscape:pageopacity="0.0"
     inkscape:pagecheckerboard="0"
     showgrid="false"
     inkscape:zoom="3.2968202"
     inkscape:cx="146.35314"
     inkscape:cy="94.18166"
     inkscape:window-width="1440"
     inkscape:window-height="847"
     inkscape:window-x="-8"
     inkscape:window-y="-8"
     inkscape:window-maximized="1"
     inkscape:current-layer="svg30" />
  <defs
     id="defs4">
    <style
       id="style2">.cls-1{font-size:60.75px;font-family:Montserrat-SemiBold, Montserrat;font-weight:600;}.cls-2{letter-spacing:-0.01em;}.cls-3{letter-spacing:0em;}.cls-4{letter-spacing:0em;}</style>
  </defs>
  <title
     id="title6">sragen</title>
  <g
     id="Layer_2"
     data-name="Layer 2"
     style="fill:#ffffff">
    <g
       id="Layer_1-2"
       data-name="Layer 1"
       style="fill:#ffffff">
      <path
         d="M136.56,0S69.44,45.47,42.77,94.49c0,0-17.69,29.69-18.72,63.91H0c1.42-7.55,15.39-74.88,67.08-115.5C123-1,134.82,0,136.56,0Z"
         id="path8"
         style="fill:#ffffff" />
      <path
         d="M108.74,57.73S68.59,87.14,53.05,118.26c0,0-10.27,18.74-10.5,40.14H28c1.14-6.77,9.17-47.45,39.09-72.83C100.5,57.25,107.69,57.75,108.74,57.73Z"
         id="path10"
         style="fill:#ffffff" />
      <path
         d="M103.86,90.67s-29.13,20.68-39.94,41.72c0,0-6.9,12.2-6.85,26H46.5c1.27-7,7-31.61,27.09-48.05C97.73,90.61,103.09,90.72,103.86,90.67Z"
         id="path12"
         style="fill:#ffffff" />
      <path
         d="M83.06,2.44s55.48,36.79,77.54,76.45c0,0,14.62,24,15.47,51.72H196C194.78,124.5,183.23,70,140.5,37.15,94.26,1.59,84.5,2.44,83.06,2.44Z"
         id="path14"
         style="fill:#ffffff" />
      <path
         d="M106.06,49.15s33.19,23.8,46,49c0,0,8.49,15.16,8.68,32.48h12c-.95-5.47-7.59-38.4-32.33-58.94C112.87,48.76,106.93,49.17,106.06,49.15Z"
         id="path16"
         style="fill:#ffffff" />
      <path
         d="M110.09,75.8s24.09,16.74,33,33.76c0,0,5.71,9.88,5.66,21.05h8.74c-1-5.68-5.78-25.58-22.39-38.88C115.16,75.75,110.73,75.84,110.09,75.8Z"
         id="path18"
         style="fill:#ffffff" />
      <text
         class="cls-1"
         transform="translate(70.9 171.97)"
         id="text26"
         style="fill:#ffffff">S<tspan
   class="cls-2"
   x="38.21"
   y="0"
   id="tspan20"
   style="fill:#ffffff">r</tspan><tspan
   class="cls-3"
   x="63.24"
   y="0"
   id="tspan22"
   style="fill:#ffffff">a</tspan><tspan
   class="cls-4"
   x="100.41"
   y="0"
   id="tspan24"
   style="fill:#ffffff">gen</tspan></text>
    </g>
  </g>
</svg>
