<svg xmlns="http://www.w3.org/2000/svg" viewBox="0 0 410.45 150.26"><defs><style>.cls-1{font-size:66.76px;font-family:Montserrat-SemiBold, Montserrat;font-weight:600;}.cls-2{letter-spacing:-0.02em;}.cls-3{letter-spacing:0em;}</style></defs><title>sukoharjo</title><g id="Layer_2" data-name="Layer 2"><g id="Layer_1-2" data-name="Layer 1"><path d="M409.38,31.18c.1,0,.51-.09,0-3.44-1-6.33-4.22-8.34-5.89-8.34s-5.4,1.67-6.28,1.57-2.94-3.63-5.1-3.63-5,4-5.4,4.32-1.37,0-2.84,1-2.75,6.08-2.75,6.08l-4.61-.59a23,23,0,0,0-4-9.81c-1.67-2.25-4.61-2.35-5.2-2.45s-2.06-5.2-2.06-5.2l3.14-.39c3.14-.4,2.85-2.07,1.47-5.21S364,5,364,5a11,11,0,0,0-7-4.91c-3.63-.59-6.28,2.65-6.28,2.65l-.2,1.47a25.39,25.39,0,0,0-3.24,4.62c-9.68-2.49-19.62.65-20.8,3s-1.7,6.94,2.49,11.39a17.27,17.27,0,0,0,10.07,5.23c1.18.26,1.7.78,1.31,3.4-.93,6.22-1.83,5.5-7.72,5-13.19-1.17-23.94-8.63-25.51-9.29s-13.6-13.08-16.36-14.91S280.5,8.67,279.46,9.07s4.7,3.92,4.7,3.92-1.7,3.66-.52,7.07,11,3.14,11.77,3.4S309.54,41,313.6,41.64s13.21,5.76,14.65,6.94,4.19,14.78,4.19,14.78A42.57,42.57,0,0,0,326.55,72c-.91,1.82,2,2.88,2,2.88-2.49,6.67-6.81,52.32-6.81,52.32.26,2,2.59,2.79,2.59,2.79l-.2,15.79h8.54c1.86-1.37,2.45-13.14,2.45-13.14s1.57.29,2.35-5.4,8.15-40.53,8.15-40.53c2,7.56,2.35,34,3.92,40.92s4.42,6.48,4.42,6.48L355,146l12,.1-.39-2.55a27.69,27.69,0,0,0,14.71.29c5.21-1.57,4.32-6.67,4.42-11.58s-6.28-28.65-6.18-33.26,10.4-26,12.85-31.4-2-11-2.25-11.28c.26.2,5.68,4.37,9.42,2.55,8.3-4.05,10.89-26.79,10.89-27.08S409.5,31.21,409.38,31.18ZM351.8,29.87s-1,.13-2.42-1.44c0,0,2.68-.79,3.34-.59S351.8,29.87,351.8,29.87Zm11.32,40.42c-.52-.13-3.4-4.05-4.12-5.36s2.16-8.57,2.16-8.57c1.37,1.18,2.61,5.63,3.14,7.07S363.64,70.42,363.12,70.29Z"/><text class="cls-1" transform="translate(0 132.57)">Su<tspan class="cls-2" x="87.45" y="0">k</tspan><tspan class="cls-3" x="128.44" y="0">oharjo</tspan></text></g></g></svg>