<svg xmlns="http://www.w3.org/2000/svg" viewBox="0 0 401.52 121.66"><title>yogyakarta</title><g id="Layer_2" data-name="Layer 2"><g id="Layer_1-2" data-name="Layer 1"><path d="M363.91,101.82v7.32H318.78v-7.32h3.84v-3.3h3.21v-4.3h2.56V74.53h3.39V60.69a12.5,12.5,0,0,1-4-1.07c-2.67-1.42-1.39-6.68.09-7.49,2.69-1.47,3.48,1.46,3.48,1.46s-1.77,2.82-.67,3.06a7.24,7.24,0,0,0,1.07.12c.32,0,.69,0,1.1,0l.07-.58,4.32-38.91a18.42,18.42,0,0,1-6.59-1.52c-1.47-.78.78-3.89.78-3.89s1.39.85,6.29,1.12l0-.29s.86-5.27,1.37-7.1c.38-1.35,2.19-5.63,2.19-5.63s1.76,4.07,2.16,5.45c.53,1.81,1.56,7.32,1.56,7.32l0,.3c3.88-.05,4.94-.21,6-.71,0,0,3,2.52,1.14,3.85-1,.7-4,1-6.69,1.14l4.2,38.87.07.66a6.12,6.12,0,0,0,1.1-.09,3.64,3.64,0,0,0,1.15-.39c1.41-.73-.91-3.72-.91-3.72s3.32-1.49,4.51,0c1.44,1.78.5,6.42-.79,7.14a11.86,11.86,0,0,1-4,1V74.53h3.38V94.22h2.56v4.3h3.21v3.3Z"/><path d="M27.31,91.45V108.1H18.55V91.58L0,60.89H9.37l13.83,23,14-23h8.63Z"/><path d="M43.7,90.1c0-10.79,8.1-18.42,19.16-18.42S82.08,79.31,82.08,90.1s-8,18.48-19.22,18.48S43.7,100.89,43.7,90.1Zm29.88,0c0-6.88-4.58-11.27-10.72-11.27S52.2,83.22,52.2,90.1s4.59,11.26,10.66,11.26S73.58,97,73.58,90.1Z"/><path d="M125.92,72.09v30.55c0,13.09-6.81,19-19.43,19-6.74,0-13.42-1.75-17.53-5.13l3.78-6.33c3.16,2.63,8.29,4.31,13.28,4.31,8,0,11.47-3.64,11.47-10.92V101.7c-3,3.23-7.22,4.79-12.08,4.79-10.31,0-18.21-7-18.21-17.47s7.9-17.34,18.21-17.34c5.06,0,9.51,1.62,12.48,5.2V72.09ZM117.62,89c0-6.07-4.58-10.19-10.92-10.19S95.7,83,95.7,89s4.59,10.32,11,10.32S117.62,95.15,117.62,89Z"/><path d="M170.7,72.09,153.84,111c-3.31,8.16-7.89,10.66-13.89,10.66a14.9,14.9,0,0,1-9.65-3.3l3.37-6.21a9.15,9.15,0,0,0,6.21,2.5c3,0,4.72-1.42,6.34-5l.6-1.42L131.11,72.09h8.77l11.33,26.64,11.4-26.64Z"/><path d="M205,87V108.1h-8v-4.38c-2,3.1-5.93,4.86-11.33,4.86-8.23,0-13.42-4.52-13.42-10.79,0-6,4.05-10.73,15-10.73h9.31v-.54c0-4.92-3-7.82-9-7.82a17.87,17.87,0,0,0-10.93,3.57l-3.3-6.13c3.84-3,9.44-4.46,15.24-4.46C199,71.68,205,76.61,205,87Zm-8.43,9.85V92.66h-8.7c-5.73,0-7.28,2.16-7.28,4.79,0,3,2.56,5,6.88,5C191.54,102.44,195.11,100.55,196.53,96.84Z"/><path d="M230.45,92.66l-6.27,5.93v9.51h-8.43v-50h8.43V88.28l17.47-16.19h10.12l-15,15.11,16.45,20.9H242.93Z"/><path d="M288.12,87V108.1h-8v-4.38c-2,3.1-5.93,4.86-11.33,4.86-8.23,0-13.42-4.52-13.42-10.79,0-6,4-10.73,15-10.73h9.31v-.54c0-4.92-3-7.82-9-7.82a17.87,17.87,0,0,0-10.93,3.57l-3.3-6.13c3.84-3,9.44-4.46,15.24-4.46C282.12,71.68,288.12,76.61,288.12,87Zm-8.43,9.85V92.66H271c-5.73,0-7.29,2.16-7.29,4.79,0,3,2.57,5,6.88,5C274.7,102.44,278.27,100.55,279.69,96.84Z"/><path d="M319.75,71.68v8a11.13,11.13,0,0,0-2-.2c-6.4,0-10.45,3.77-10.45,11.13V108.1h-8.43v-36h8v5.26C309.36,73.57,313.75,71.68,319.75,71.68Z"/><path d="M401.52,87V108.1h-8v-4.38c-2,3.1-5.93,4.86-11.33,4.86-8.22,0-13.42-4.52-13.42-10.79,0-6,4.05-10.73,15-10.73h9.31v-.54c0-4.92-3-7.82-9-7.82a17.84,17.84,0,0,0-10.92,3.57l-3.31-6.13c3.85-3,9.44-4.46,15.24-4.46C395.52,71.68,401.52,76.61,401.52,87Zm-8.43,9.85V92.66h-8.7c-5.73,0-7.28,2.16-7.28,4.79,0,3,2.56,5,6.88,5C388.1,102.44,391.68,100.55,393.09,96.84Z"/></g></g></svg>