<svg xmlns="http://www.w3.org/2000/svg" viewBox="0 0 1015 340"><defs><style>.cls-1,.cls-2{fill-rule:evenodd;}.cls-2,.cls-3{fill:#fff;}</style></defs><g id="Layer_2" data-name="Layer 2"><g id="Eng"><path class="cls-1" d="M952.39,0H62C8.85,0,0,18.4,0,62.16V278.23C0,322,18.2,340,61.93,340H952.4c43.76,0,62.6-18.07,62.6-61.83v-216C1015,18.4,996.15,0,952.39,0Z"/><path class="cls-2" d="M264.63,211.64C259.52,223,257.07,228,250.49,238c-9.19,14-22.13,31.4-38.17,31.54-14.25.13-17.91-9.28-37.25-9.17s-23.38,9.34-37.64,9.21c-16-.15-28.3-15.88-37.49-29.85-25.68-39.1-28.36-85-12.53-109.37,11.26-17.34,29-27.48,45.71-27.48,17,0,27.69,9.32,41.75,9.32,13.63,0,21.94-9.34,41.59-9.34,14.86,0,30.6,8.09,41.82,22.08-36.75,20.14-30.78,72.63,6.35,86.66"/><path class="cls-2" d="M201.55,87.29c7.14-9.17,12.57-22.12,10.6-35.34-11.66.8-25.31,8.22-33.28,17.9-7.23,8.78-13.2,21.81-10.87,34.47,12.73.39,25.9-7.21,33.55-17"/><path class="cls-2" d="M924.37,230H872.74c.2,7,2.7,13.14,7.49,17.17,4.35,3.62,10,5.27,16.89,5.27A56.23,56.23,0,0,0,918,248.66l2.71,11.93c-7.3,3.21-16,4.75-26,4.75q-18,0-28.26-10.59t-10.3-28.43c0-11.71,3.2-21.41,9.56-29.2q10.08-12.41,27.1-12.41,16.79,0,25.34,12.41c4.55,6.6,6.85,15.07,6.85,24.73A45.1,45.1,0,0,1,924.37,230ZM851,201.59a26.88,26.88,0,0,0-5.55-.44c-6.06,0-10.78,2.28-14.08,6.84-2.88,4-4.37,9.07-4.37,15.28V263H810V210.81c0-8.87-.37-16.81-.67-24.81h15l.64,16h.47A27.45,27.45,0,0,1,834,189.4a21.18,21.18,0,0,1,12.58-4.32,28.42,28.42,0,0,1,4.4.12Zm-62.22,52.3q-10.71,11.76-28.36,11.76-17.07,0-27.21-11.31c-6.73-7.52-10.09-17.07-10.09-28.52q0-18,10.43-29.47c7-7.68,16.31-11.45,28.1-11.45,11.41,0,20.54,3.73,27.44,11.31C795.66,203.5,799,213,799,224.55,799,236.48,795.58,246.22,788.78,253.89ZM718,200H700v37c0,9.56,3,14.29,9.66,14.29a29.34,29.34,0,0,0,7.44-.75l.39,13a39.31,39.31,0,0,1-13.44,1.92c-6.76,0-12.29-2-16.11-6.22S682,248.18,682,238.41V200H671V186h11V172.28l18-5.1V186h18Zm-60.49,56.08q-10.54,9.42-29.26,9.4c-11.58,0-20.84-2.24-27.84-6.68l4-14.34a48.08,48.08,0,0,0,24.83,6.69c6.51,0,11.54-1.48,15.15-4.38a14.31,14.31,0,0,0,5.4-11.76,15,15,0,0,0-4.44-10.95c-3-3-7.9-5.71-14.82-8.29Q602.36,205.29,602.34,185a27.09,27.09,0,0,1,9.93-21.68q10-8.43,26.39-8.44,14.64,0,24.39,5.09l-4.35,14a42.58,42.58,0,0,0-20.61-4.94c-6.06,0-10.82,1.54-14.24,4.44a12.92,12.92,0,0,0-4.3,9.75,13.3,13.3,0,0,0,4.93,10.54q4.32,3.81,15.6,8.26c9.28,3.69,16,8.07,20.42,13.08S667,226.35,667,233.77C667,242.92,663.84,250.38,657.51,256.08Zm-99.43-.6a31.66,31.66,0,0,1-23.93,10.17c-10.25,0-17.15-3.65-22.15-11V296H495V211.9c0-8.27-.32-15.9-.73-25.9h15.1l1,13h.3c5.77-9,14.45-14,26.14-14a28.61,28.61,0,0,1,22.87,10.75q9.18,10.8,9.17,28.48C568.84,237.48,565.26,247.82,558.08,255.48Zm-85.08,0a31.56,31.56,0,0,1-23.88,10.17c-10.28,0-17.12-3.65-22.12-11V296H410V211.9c0-8.27-.39-15.9-.83-25.9h15.14l.95,13h.3c5.77-9,14.46-14,26.16-14,9.14,0,16.74,3.51,22.88,10.75s9.16,16.7,9.16,28.48C483.76,237.48,480.18,247.82,473,255.48ZM381,263l-10-31H336l-9.58,31H308.64l34.54-107h21.38l34.75,107Zm510.57-66.36c-5.62,0-10.18,2.88-13.71,7.52A24.65,24.65,0,0,0,872.74,218h35.84c.1-6-1-9.95-3.33-13.69A15.49,15.49,0,0,0,891.54,196.64ZM353.4,171h-.3c-1.08,5-2.76,11.66-5.12,20.59L339.06,220h28.83l-9-28.41C357.87,188.71,356,181,353.4,171Zm177.83,27.56a17.77,17.77,0,0,0-11.54,4.2,19.94,19.94,0,0,0-6.85,11.12,23.1,23.1,0,0,0-.84,5.27V232a20.69,20.69,0,0,0,5.23,14.29,17.31,17.31,0,0,0,13.47,5.79c6.51,0,11.56-2.48,15.18-7.48s5.44-11.58,5.44-19.79c0-7.52-1.71-13.74-5.1-18.61A17.74,17.74,0,0,0,531.23,198.56ZM761,197.48c-6.88,0-12.15,3.06-15.74,9.21-3.11,5.07-4.64,11.25-4.64,18.56,0,7.13,1.53,13.2,4.64,18.28q5.52,9.21,15.61,9.2c6.55,0,11.72-3.1,15.42-9.39,3.21-5.14,4.81-11.31,4.81-18.38s-1.54-13.2-4.6-18.27C772.86,200.54,767.72,197.48,761,197.48Zm-314.9,1.08a17.81,17.81,0,0,0-11.53,4.2,19.85,19.85,0,0,0-6.79,11.12,22.72,22.72,0,0,0-.8,5.27V232a20.65,20.65,0,0,0,5.18,14.29,17.29,17.29,0,0,0,13.46,5.79c6.47,0,11.55-2.48,15.16-7.48s5.4-11.58,5.4-19.79c0-7.52-1.68-13.74-5.08-18.61A17.72,17.72,0,0,0,446.12,198.56Z"/><path class="cls-3" d="M331.3,113.84l-4.77,15.71H316.09l17.76-55.43h12.92l18,55.43H353.92l-5-15.71Zm15.88-7.65-4.36-13.65c-1.07-3.37-2-7.16-2.8-10.36h-.16c-.83,3.2-1.65,7.07-2.63,10.36L333,106.19Z"/><path class="cls-3" d="M376.3,89.5l6.49,20.31c1.15,3.54,2,6.75,2.72,10h.24c.74-3.29,1.65-6.42,2.72-10L394.8,89.5h10.69l-15.3,40.05h-9.95L365.36,89.5Z"/><path class="cls-3" d="M433.71,129.55l-.66-4.44h-.25A14.9,14.9,0,0,1,421,130.46c-8.06,0-12.59-5.84-12.59-11.93,0-10.12,9-15.22,23.77-15.13v-.66c0-2.63-1.07-7-8.14-7a21.15,21.15,0,0,0-10.77,3l-2-6.58a28.86,28.86,0,0,1,14.48-3.54c12.83,0,16.53,8.14,16.53,16.86v14.48a64.45,64.45,0,0,0,.57,9.62ZM432.39,110c-7.16-.17-14,1.39-14,7.48,0,4,2.55,5.76,5.76,5.76a8.19,8.19,0,0,0,7.89-5.51,7.21,7.21,0,0,0,.33-2.22Z"/><path class="cls-3" d="M453,71.16h10.2v58.39H453Z"/><path class="cls-3" d="M484.87,78.31c0,3-2.23,5.43-5.76,5.43a5.32,5.32,0,0,1-5.59-5.43,5.68,5.68,0,0,1,11.35,0Zm-10.78,51.24V89.5h10.2v40.05Z"/><path class="cls-3" d="M494.82,129.55c.16-2.71.33-7.15.33-11.27V71.16h10.11V95h.17c2.47-3.87,6.82-6.42,12.83-6.42,9.79,0,16.78,8.14,16.69,20.32,0,14.39-9.13,21.55-18.17,21.55-5.18,0-9.79-2-12.67-6.91H504l-.5,6ZM505.26,113a11.43,11.43,0,0,0,.25,2.38,9.34,9.34,0,0,0,9,7.08c6.33,0,10.19-5.1,10.19-13.16,0-7.07-3.37-12.83-10.11-12.83a9.47,9.47,0,0,0-9,7.4,12.32,12.32,0,0,0-.33,2.63Z"/><path class="cls-3" d="M543.26,71.16h10.2v58.39h-10.2Z"/><path class="cls-3" d="M571.56,112.36c.24,7.24,5.92,10.36,12.33,10.36A30,30,0,0,0,595,120.91l1.48,7a37.94,37.94,0,0,1-14,2.46c-13,0-20.65-8-20.65-20.23,0-11.1,6.75-21.55,19.58-21.55,13,0,17.27,10.69,17.27,19.49a25.26,25.26,0,0,1-.33,4.28Zm17.6-7.07c.08-3.7-1.57-9.79-8.31-9.79-6.25,0-8.88,5.68-9.29,9.79Z"/><path class="cls-3" d="M662,109.15c0,14.73-10.37,21.31-20.56,21.31-11.35,0-20.07-7.82-20.07-20.65,0-13.16,8.63-21.22,20.72-21.22C654,88.59,662,97,662,109.15Zm-30.19.41c0,7.74,3.79,13.58,10,13.58,5.76,0,9.79-5.68,9.79-13.74,0-6.25-2.79-13.41-9.7-13.41C634.64,96,631.76,102.9,631.76,109.56Z"/><path class="cls-3" d="M670.26,101.42c0-4.6-.09-8.47-.33-11.92h8.88l.49,6h.25a14.46,14.46,0,0,1,12.75-6.91c7,0,14.23,4.53,14.23,17.19v23.77H696.41V106.93c0-5.75-2.14-10.11-7.65-10.11a8.49,8.49,0,0,0-7.89,5.92,10.27,10.27,0,0,0-.41,3.29v23.52h-10.2Z"/><path class="cls-3" d="M745.93,78.06V89.5h9.62v7.56h-9.62v17.69c0,4.85,1.31,7.4,5.18,7.4a14.71,14.71,0,0,0,3.94-.5l.17,7.74a22.41,22.41,0,0,1-7.32,1c-3.7,0-6.83-1.23-8.72-3.29-2.14-2.3-3.12-5.92-3.12-11.18V97.06H730.3V89.5h5.76v-9Z"/><path class="cls-3" d="M763.2,71.16h10.2V95h.16a14.48,14.48,0,0,1,11.93-6.42c6.82,0,14,4.53,14,17.36v23.6H789.35V107.1c0-5.84-2.14-10.2-7.73-10.2a8.25,8.25,0,0,0-7.81,5.67,8.57,8.57,0,0,0-.41,3.05v23.93H763.2Z"/><path class="cls-3" d="M817.4,112.36c.25,7.24,5.92,10.36,12.34,10.36a29.89,29.89,0,0,0,11.1-1.81l1.48,7a37.86,37.86,0,0,1-14,2.46c-13,0-20.64-8-20.64-20.23,0-11.1,6.74-21.55,19.57-21.55,13,0,17.27,10.69,17.27,19.49a24.24,24.24,0,0,1-.33,4.28Zm17.6-7.07c.08-3.7-1.56-9.79-8.3-9.79-6.26,0-8.89,5.68-9.3,9.79Z"/></g></g></svg>